<svg xmlns="http://www.w3.org/2000/svg" xmlns:xlink="http://www.w3.org/1999/xlink" width="40" zoomAndPan="magnify" viewBox="0 0 30 30.000001" height="40" preserveAspectRatio="xMidYMid meet" version="1.0"><defs><clipPath id="e2350e49a2"><path d="M 0.484375 0 L 29.515625 0 L 29.515625 29.03125 L 0.484375 29.03125 Z M 0.484375 0 " clip-rule="nonzero"/></clipPath><clipPath id="1205f53614"><path d="M 3.386719 0.980469 L 27.339844 0.980469 L 27.339844 27.835938 L 3.386719 27.835938 Z M 3.386719 0.980469 " clip-rule="nonzero"/></clipPath></defs><g clip-path="url(#e2350e49a2)"><path fill="#ffffff" d="M 0.484375 0 L 29.515625 0 L 29.515625 29.03125 L 0.484375 29.03125 Z M 0.484375 0 " fill-opacity="1" fill-rule="nonzero"/><path fill="#000000" d="M 0.484375 0 L 29.515625 0 L 29.515625 29.03125 L 0.484375 29.03125 Z M 0.484375 0 " fill-opacity="1" fill-rule="nonzero"/></g><g clip-path="url(#1205f53614)"><path fill="#ffffff" d="M 14.582031 5.664062 C 16.066406 6.609375 17.101562 8.1875 17.28125 9.988281 C 17.867188 10.257812 18.542969 10.4375 19.265625 10.4375 C 21.878906 10.4375 23.992188 8.320312 23.992188 5.707031 C 23.992188 3.097656 21.878906 0.980469 19.265625 0.980469 C 16.695312 1.023438 14.582031 3.097656 14.582031 5.664062 Z M 11.472656 15.304688 C 14.085938 15.304688 16.203125 13.1875 16.203125 10.574219 C 16.203125 7.960938 14.085938 5.84375 11.472656 5.84375 C 8.859375 5.84375 6.742188 7.960938 6.742188 10.574219 C 6.742188 13.1875 8.859375 15.304688 11.472656 15.304688 Z M 13.453125 15.617188 L 9.445312 15.617188 C 6.113281 15.617188 3.410156 18.320312 3.410156 21.652344 L 3.410156 26.652344 L 3.726562 26.742188 C 6.878906 27.734375 9.671875 28.050781 11.921875 28.050781 C 16.335938 28.050781 18.902344 26.789062 19.085938 26.699219 L 19.398438 26.519531 L 19.445312 26.519531 L 19.445312 21.652344 C 19.488281 18.320312 16.789062 15.617188 13.453125 15.617188 Z M 21.246094 10.753906 L 17.28125 10.753906 C 17.238281 12.328125 16.5625 13.769531 15.480469 14.808594 C 18.453125 15.707031 20.617188 18.410156 20.617188 21.652344 L 20.617188 23.140625 C 24.535156 23.003906 26.785156 21.878906 26.921875 21.832031 L 27.238281 21.652344 L 27.28125 21.652344 L 27.28125 16.789062 C 27.28125 13.457031 24.578125 10.753906 21.246094 10.753906 Z M 21.246094 10.753906 " fill-opacity="1" fill-rule="nonzero"/></g></svg>