<svg xmlns="http://www.w3.org/2000/svg" xmlns:xlink="http://www.w3.org/1999/xlink" width="500" zoomAndPan="magnify" viewBox="0 0 375 374.999991" height="500" preserveAspectRatio="xMidYMid meet" version="1.0"><defs><clipPath id="690f44b1cd"><path d="M 37.5 12.652344 L 346.5 12.652344 L 346.5 362.152344 L 37.5 362.152344 Z M 37.5 12.652344 " clip-rule="nonzero"/></clipPath></defs><rect x="-37.5" width="450" fill="#ffffff" y="-37.499999" height="449.999989" fill-opacity="1"/><rect x="-37.5" width="450" fill="#000000" y="-37.499999" height="449.999989" fill-opacity="1"/><g clip-path="url(#690f44b1cd)"><path fill="#ffffff" d="M 182.125 73.164062 C 201.328125 85.382812 214.710938 105.746094 217.035156 129.019531 C 224.601562 132.511719 233.328125 134.835938 242.636719 134.835938 C 276.382812 134.835938 303.730469 107.492188 303.730469 73.746094 C 303.730469 39.996094 276.382812 12.652344 242.636719 12.652344 C 209.472656 13.234375 182.125 39.996094 182.125 73.164062 Z M 141.980469 197.675781 C 175.726562 197.675781 203.074219 170.332031 203.074219 136.582031 C 203.074219 102.835938 175.726562 75.488281 141.980469 75.488281 C 108.230469 75.488281 80.886719 102.835938 80.886719 136.582031 C 80.886719 170.332031 108.230469 197.675781 141.980469 197.675781 Z M 167.582031 201.75 L 115.796875 201.75 C 72.738281 201.75 37.828125 236.660156 37.828125 279.714844 L 37.828125 344.300781 L 41.902344 345.464844 C 82.632812 358.265625 118.707031 362.339844 147.796875 362.339844 C 204.816406 362.339844 237.984375 346.046875 240.308594 344.882812 L 244.382812 342.554688 L 244.964844 342.554688 L 244.964844 279.714844 C 245.546875 236.660156 210.636719 201.75 167.582031 201.75 Z M 268.238281 138.910156 L 217.035156 138.910156 C 216.453125 159.273438 207.726562 177.894531 193.761719 191.277344 C 232.164062 202.914062 260.09375 237.824219 260.09375 279.714844 L 260.09375 298.917969 C 310.714844 297.171875 339.804688 282.625 341.550781 282.042969 L 345.625 279.714844 L 346.207031 279.714844 L 346.207031 216.878906 C 346.207031 173.820312 311.296875 138.910156 268.238281 138.910156 Z M 268.238281 138.910156 " fill-opacity="1" fill-rule="nonzero"/></g></svg>