<svg xmlns="http://www.w3.org/2000/svg" xmlns:xlink="http://www.w3.org/1999/xlink" width="150" zoomAndPan="magnify" viewBox="0 0 112.5 112.499997" height="150" preserveAspectRatio="xMidYMid meet" version="1.0"><defs><clipPath id="465a60b664"><path d="M 0 0 L 112.003906 0 L 112.003906 112.003906 L 0 112.003906 Z M 0 0 " clip-rule="nonzero"/></clipPath><clipPath id="e8ca005265"><path d="M 18.199219 18.429688 L 93.34375 18.429688 L 93.34375 93.574219 L 18.199219 93.574219 Z M 18.199219 18.429688 " clip-rule="nonzero"/></clipPath><clipPath id="00244bbede"><path d="M 55.773438 18.429688 C 35.023438 18.429688 18.199219 35.25 18.199219 56 C 18.199219 76.75 35.023438 93.574219 55.773438 93.574219 C 76.523438 93.574219 93.34375 76.75 93.34375 56 C 93.34375 35.25 76.523438 18.429688 55.773438 18.429688 Z M 55.773438 18.429688 " clip-rule="nonzero"/></clipPath><clipPath id="c12ee8a045"><path d="M 29.84375 30.070312 L 81.703125 30.070312 L 81.703125 81.933594 L 29.84375 81.933594 Z M 29.84375 30.070312 " clip-rule="nonzero"/></clipPath><clipPath id="2b0bc8385a"><path d="M 55.773438 30.070312 C 41.453125 30.070312 29.84375 41.679688 29.84375 56 C 29.84375 70.324219 41.453125 81.933594 55.773438 81.933594 C 70.09375 81.933594 81.703125 70.324219 81.703125 56 C 81.703125 41.679688 70.09375 30.070312 55.773438 30.070312 Z M 55.773438 30.070312 " clip-rule="nonzero"/></clipPath></defs><g clip-path="url(#465a60b664)"><path fill="#ffffff" d="M 0 0 L 112.003906 0 L 112.003906 112.003906 L 0 112.003906 Z M 0 0 " fill-opacity="1" fill-rule="nonzero"/><path fill="#000000" d="M 0 0 L 112.003906 0 L 112.003906 112.003906 L 0 112.003906 Z M 0 0 " fill-opacity="1" fill-rule="nonzero"/></g><g clip-path="url(#e8ca005265)"><g clip-path="url(#00244bbede)"><path fill="#505050" d="M 18.199219 18.429688 L 93.34375 18.429688 L 93.34375 93.574219 L 18.199219 93.574219 Z M 18.199219 18.429688 " fill-opacity="1" fill-rule="nonzero"/></g></g><g clip-path="url(#c12ee8a045)"><g clip-path="url(#2b0bc8385a)"><path fill="#000000" d="M 29.84375 30.070312 L 81.703125 30.070312 L 81.703125 81.933594 L 29.84375 81.933594 Z M 29.84375 30.070312 " fill-opacity="1" fill-rule="nonzero"/></g></g></svg>