<svg xmlns="http://www.w3.org/2000/svg" xmlns:xlink="http://www.w3.org/1999/xlink" width="40" zoomAndPan="magnify" viewBox="0 0 30 30.000001" height="40" preserveAspectRatio="xMidYMid meet" version="1.0"><defs><clipPath id="b67810b9f6"><path d="M 0.484375 0 L 29.515625 0 L 29.515625 29.03125 L 0.484375 29.03125 Z M 0.484375 0 " clip-rule="nonzero"/></clipPath><clipPath id="8fc015c1dd"><path d="M 6.742188 0 L 29.515625 0 L 29.515625 25.910156 L 6.742188 25.910156 Z M 6.742188 0 " clip-rule="nonzero"/></clipPath><clipPath id="a7addd6096"><path d="M 16.976562 0 L 26.96875 0 L 26.96875 10.285156 L 16.976562 10.285156 Z M 16.976562 0 " clip-rule="nonzero"/></clipPath><clipPath id="978f3d80db"><path d="M 23.960938 1.398438 C 25.363281 4.4375 26.636719 5.503906 26.402344 6 C 26.125 6.589844 23.652344 6.675781 22.492188 6.542969 C 21.503906 6.429688 19.957031 6.03125 19.84375 5.515625 C 19.726562 5 21.675781 4.261719 21.816406 3.449219 C 21.96875 2.566406 20.132812 0.714844 20.429688 0.367188 C 20.695312 0.0507812 22.445312 0.574219 23.058594 1.058594 C 23.605469 1.488281 23.882812 2.46875 24.082031 2.949219 C 24.191406 3.222656 24.242188 3.398438 24.277344 3.628906 C 24.3125 3.859375 24.320312 4.097656 24.300781 4.332031 C 24.285156 4.5625 24.230469 4.800781 24.15625 5.023438 C 24.082031 5.242188 23.976562 5.457031 23.847656 5.65625 C 23.722656 5.851562 23.570312 6.039062 23.402344 6.203125 C 23.234375 6.363281 23.042969 6.503906 22.839844 6.621094 C 22.636719 6.734375 22.414062 6.828125 22.1875 6.890625 C 21.960938 6.957031 21.722656 6.996094 21.492188 7.003906 C 21.257812 7.007812 21.015625 6.984375 20.789062 6.9375 C 20.5625 6.890625 20.332031 6.8125 20.121094 6.710938 C 19.914062 6.613281 19.710938 6.480469 19.527344 6.335938 C 19.347656 6.183594 19.1875 6.007812 19.046875 5.824219 C 18.90625 5.636719 18.761719 5.503906 18.699219 5.214844 C 18.578125 4.640625 18.960938 2.460938 18.984375 2.460938 C 19.007812 2.460938 19.128906 5.21875 18.820312 5.335938 C 18.601562 5.421875 18.046875 4.632812 17.769531 4.296875 C 17.550781 4.023438 17.375 3.785156 17.246094 3.496094 C 17.121094 3.207031 17.039062 2.878906 17.007812 2.566406 C 16.980469 2.253906 17.003906 1.921875 17.078125 1.613281 C 17.152344 1.304688 17.28125 1 17.449219 0.730469 C 17.617188 0.464844 17.839844 0.210938 18.082031 0.0117188 C 18.328125 -0.1875 18.617188 -0.355469 18.914062 -0.464844 C 19.210938 -0.574219 19.535156 -0.640625 19.847656 -0.648438 C 20.160156 -0.660156 20.5 -0.621094 20.800781 -0.527344 C 21.101562 -0.433594 21.40625 -0.289062 21.660156 -0.109375 C 21.914062 0.0703125 22.152344 0.308594 22.339844 0.5625 C 22.523438 0.820312 22.683594 1.113281 22.773438 1.417969 C 22.867188 1.71875 22.914062 2.050781 22.910156 2.363281 C 22.902344 2.675781 22.839844 3.007812 22.734375 3.304688 C 22.628906 3.601562 22.46875 3.890625 22.269531 4.140625 C 22.078125 4.382812 21.828125 4.617188 21.566406 4.785156 C 21.304688 4.957031 21 5.09375 20.691406 5.167969 C 20.386719 5.242188 20.050781 5.277344 19.738281 5.253906 C 19.425781 5.230469 19.09375 5.148438 18.804688 5.027344 C 18.511719 4.90625 18.234375 4.726562 17.996094 4.515625 C 17.765625 4.308594 17.550781 4.054688 17.390625 3.78125 C 17.234375 3.507812 17.121094 3.1875 17.054688 2.878906 C 16.992188 2.570312 16.980469 2.242188 17.019531 1.929688 C 17.0625 1.613281 17.152344 1.292969 17.292969 1.011719 C 17.433594 0.726562 17.625 0.453125 17.84375 0.226562 C 18.066406 0 18.339844 -0.199219 18.617188 -0.335938 C 18.902344 -0.476562 19.222656 -0.574219 19.535156 -0.621094 C 19.847656 -0.667969 20.179688 -0.660156 20.488281 -0.605469 C 20.792969 -0.546875 21.113281 -0.429688 21.386719 -0.277344 C 21.664062 -0.128906 22.160156 0.285156 22.140625 0.3125 C 22.125 0.335938 21.519531 -0.0390625 21.484375 0.0117188 C 21.40625 0.121094 23.59375 1.601562 23.964844 2.589844 C 24.308594 3.5 23.8125 5.644531 23.835938 5.644531 C 23.859375 5.644531 23.972656 2.960938 24.082031 2.949219 C 24.140625 2.945312 24.242188 3.398438 24.277344 3.628906 C 24.3125 3.859375 24.320312 4.097656 24.300781 4.332031 C 24.285156 4.5625 24.230469 4.800781 24.15625 5.023438 C 24.082031 5.242188 23.976562 5.457031 23.847656 5.65625 C 23.722656 5.851562 23.570312 6.039062 23.402344 6.203125 C 23.234375 6.363281 23.042969 6.503906 22.839844 6.621094 C 22.636719 6.734375 22.414062 6.828125 22.1875 6.890625 C 21.960938 6.957031 21.722656 6.996094 21.492188 7.003906 C 21.257812 7.007812 21.015625 6.984375 20.789062 6.9375 C 20.5625 6.890625 20.332031 6.8125 20.121094 6.710938 C 19.914062 6.613281 19.710938 6.480469 19.527344 6.335938 C 19.347656 6.183594 19.191406 6.03125 19.046875 5.824219 C 18.867188 5.5625 18.722656 5.3125 18.566406 4.859375 C 18.246094 3.9375 17.109375 1.292969 17.640625 0.433594 C 18.101562 -0.300781 19.882812 -0.570312 20.882812 -0.414062 C 21.863281 -0.253906 22.796875 0.671875 23.605469 1.324219 C 24.359375 1.929688 25.0625 2.570312 25.589844 3.328125 C 26.113281 4.074219 26.636719 4.929688 26.777344 5.839844 C 26.925781 6.816406 26.933594 8.316406 26.347656 9.015625 C 25.746094 9.730469 24.027344 10.265625 23.164062 10.050781 C 22.398438 9.863281 21.839844 8.878906 21.328125 8.175781 C 20.8125 7.460938 20.464844 6.574219 20.085938 5.785156 C 19.726562 5.027344 19.289062 4.058594 19.097656 3.542969 C 19 3.273438 18.949219 3.136719 18.914062 2.925781 C 18.878906 2.71875 18.859375 2.496094 18.878906 2.289062 C 18.894531 2.078125 18.9375 1.863281 19 1.660156 C 19.066406 1.457031 19.15625 1.261719 19.269531 1.078125 C 19.378906 0.898438 19.515625 0.730469 19.667969 0.582031 C 19.820312 0.429688 19.992188 0.296875 20.171875 0.1875 C 20.355469 0.0742188 20.558594 -0.0117188 20.761719 -0.0703125 C 20.964844 -0.132812 21.179688 -0.167969 21.394531 -0.179688 C 21.601562 -0.191406 21.824219 -0.175781 22.03125 -0.132812 C 22.242188 -0.09375 22.449219 -0.0273438 22.640625 0.0585938 C 22.832031 0.144531 23.019531 0.261719 23.1875 0.394531 C 23.351562 0.527344 23.507812 0.683594 23.632812 0.855469 C 23.761719 1.023438 23.960938 1.40625 23.960938 1.40625 " clip-rule="nonzero"/></clipPath><clipPath id="6de05510b2"><path d="M 19.453125 0 L 29.515625 0 L 29.515625 22.789062 L 19.453125 22.789062 Z M 19.453125 0 " clip-rule="nonzero"/></clipPath><clipPath id="4a2152f547"><path d="M 26.125 0.617188 C 27 1.722656 27.355469 2.164062 27.613281 2.648438 C 27.890625 3.175781 28.167969 3.972656 28.300781 4.425781 C 28.382812 4.691406 28.425781 4.882812 28.441406 5.074219 C 28.460938 5.21875 28.453125 5.335938 28.441406 5.464844 C 28.429688 5.589844 28.402344 5.726562 28.355469 5.847656 C 28.308594 5.96875 28.25 6.089844 28.175781 6.195312 C 28.105469 6.300781 28.011719 6.398438 27.917969 6.484375 C 27.820312 6.574219 27.714844 6.648438 27.601562 6.710938 C 27.484375 6.769531 27.363281 6.824219 27.234375 6.851562 C 27.105469 6.886719 26.972656 6.902344 26.84375 6.902344 C 26.71875 6.902344 26.589844 6.890625 26.460938 6.863281 C 26.335938 6.835938 26.207031 6.78125 26.089844 6.722656 C 25.972656 6.664062 25.871094 6.589844 25.769531 6.507812 C 25.671875 6.421875 25.585938 6.324219 25.507812 6.21875 C 25.433594 6.113281 25.371094 5.992188 25.324219 5.871094 C 25.277344 5.75 25.25 5.683594 25.226562 5.492188 C 25.15625 4.902344 25.15625 2.777344 25.324219 1.847656 C 25.433594 1.25 25.691406 0.394531 25.824219 0.414062 C 26.042969 0.433594 26.257812 3.375 26.242188 4.417969 C 26.230469 5.09375 26.195312 5.578125 26.007812 6.085938 C 25.828125 6.566406 25.5 7.003906 25.15625 7.390625 C 24.808594 7.785156 24.457031 8.199219 23.9375 8.429688 C 23.269531 8.726562 21.804688 8.878906 21.359375 8.761719 C 21.179688 8.714844 21.121094 8.609375 21.015625 8.511719 C 20.917969 8.417969 20.824219 8.304688 20.75 8.1875 C 20.671875 8.070312 20.609375 7.941406 20.5625 7.808594 C 20.515625 7.675781 20.480469 7.53125 20.46875 7.390625 C 20.457031 7.253906 20.464844 7.105469 20.488281 6.96875 C 20.511719 6.828125 20.546875 6.6875 20.597656 6.5625 C 20.648438 6.433594 20.726562 6.304688 20.804688 6.195312 C 20.886719 6.085938 20.992188 5.976562 21.097656 5.886719 C 21.207031 5.792969 21.324219 5.71875 21.449219 5.65625 C 21.578125 5.597656 21.710938 5.550781 21.851562 5.523438 C 21.992188 5.492188 22.136719 5.476562 22.277344 5.480469 C 22.414062 5.488281 22.558594 5.503906 22.695312 5.546875 C 22.828125 5.578125 22.964844 5.574219 23.082031 5.707031 C 23.367188 6.039062 23.472656 8.023438 23.710938 8.128906 C 23.789062 8.164062 23.925781 7.960938 23.964844 7.988281 C 24.015625 8.023438 23.953125 8.273438 23.917969 8.414062 C 23.882812 8.546875 23.832031 8.6875 23.769531 8.808594 C 23.703125 8.929688 23.617188 9.050781 23.523438 9.15625 C 23.429688 9.261719 23.320312 9.359375 23.203125 9.441406 C 23.089844 9.523438 22.960938 9.59375 22.832031 9.640625 C 22.699219 9.691406 22.558594 9.71875 22.421875 9.738281 C 22.28125 9.753906 22.128906 9.753906 21.992188 9.738281 C 21.851562 9.71875 21.710938 9.691406 21.578125 9.640625 C 21.449219 9.59375 21.324219 9.523438 21.207031 9.441406 C 21.089844 9.359375 20.980469 9.261719 20.886719 9.15625 C 20.792969 9.050781 20.707031 8.929688 20.644531 8.808594 C 20.578125 8.679688 20.527344 8.546875 20.492188 8.40625 C 20.457031 8.273438 20.488281 8.167969 20.445312 7.988281 C 20.371094 7.660156 20.0625 6.921875 19.980469 6.589844 C 19.941406 6.410156 19.917969 6.304688 19.917969 6.167969 C 19.917969 6.027344 19.933594 5.882812 19.964844 5.742188 C 19.992188 5.601562 20.039062 5.464844 20.105469 5.335938 C 20.167969 5.207031 20.25 5.085938 20.34375 4.976562 C 20.433594 4.867188 20.539062 4.765625 20.65625 4.6875 C 20.773438 4.605469 20.898438 4.535156 21.027344 4.484375 C 21.160156 4.429688 21.300781 4.394531 21.4375 4.371094 C 21.578125 4.347656 21.730469 4.347656 21.867188 4.359375 C 22.007812 4.371094 22.152344 4.40625 22.285156 4.453125 C 22.421875 4.5 22.554688 4.570312 22.671875 4.644531 C 22.785156 4.71875 22.902344 4.8125 22.996094 4.917969 C 23.09375 5.023438 23.175781 5.144531 23.246094 5.265625 C 23.316406 5.386719 23.359375 5.480469 23.40625 5.660156 C 23.5 6.027344 23.554688 6.789062 23.570312 7.363281 C 23.585938 7.953125 23.632812 8.597656 23.519531 9.15625 C 23.414062 9.667969 23.046875 10.085938 22.949219 10.585938 C 22.851562 11.097656 23.09375 11.707031 22.929688 12.183594 C 22.769531 12.664062 22.117188 13.515625 21.957031 13.460938 C 21.753906 13.382812 22.4375 11.449219 22.082031 10.972656 C 21.777344 10.554688 20.375 10.863281 20.242188 10.519531 C 20.109375 10.183594 20.789062 9.320312 21.257812 8.941406 C 21.746094 8.554688 22.570312 8.1875 23.15625 8.261719 C 23.734375 8.339844 24.390625 8.867188 24.75 9.347656 C 25.097656 9.8125 25.132812 10.492188 25.300781 11.085938 C 25.46875 11.6875 25.585938 12.355469 25.753906 12.929688 C 25.90625 13.441406 26.132812 13.859375 26.246094 14.371094 C 26.375 14.929688 26.457031 15.769531 26.445312 16.164062 C 26.4375 16.355469 26.414062 16.457031 26.375 16.59375 C 26.335938 16.734375 26.269531 16.867188 26.195312 16.996094 C 26.121094 17.117188 26.03125 17.238281 25.933594 17.34375 C 25.835938 17.449219 25.714844 17.542969 25.589844 17.617188 C 25.46875 17.691406 25.335938 17.757812 25.195312 17.796875 C 25.058594 17.84375 24.910156 17.867188 24.765625 17.878906 C 24.621094 17.890625 24.476562 17.878906 24.332031 17.855469 C 24.191406 17.832031 24.046875 17.789062 23.914062 17.734375 C 23.78125 17.675781 23.652344 17.597656 23.535156 17.511719 C 23.417969 17.425781 23.316406 17.316406 23.226562 17.203125 C 23.136719 17.089844 23.058594 16.964844 22.996094 16.832031 C 22.9375 16.707031 22.941406 16.589844 22.863281 16.421875 C 22.710938 16.089844 21.878906 15.351562 22.007812 15.050781 C 22.148438 14.714844 23.582031 15.007812 23.953125 14.609375 C 24.324219 14.207031 23.949219 12.746094 24.238281 12.640625 C 24.515625 12.542969 25.25 13.285156 25.625 13.917969 C 26.230469 14.929688 26.582031 17.40625 26.808594 18.550781 C 26.9375 19.214844 27.164062 20.066406 27.03125 20.132812 C 26.898438 20.195312 25.933594 19.253906 25.996094 18.929688 C 26.066406 18.585938 27.285156 18.640625 27.570312 18.140625 C 27.972656 17.4375 27.367188 15.769531 27.328125 14.613281 C 27.285156 13.496094 27.367188 12.25 27.320312 11.3125 C 27.285156 10.613281 26.855469 9.695312 27.136719 9.488281 C 27.464844 9.238281 29.027344 9.863281 29.5625 10.421875 C 30.085938 10.96875 30.214844 11.757812 30.351562 12.773438 C 30.589844 14.523438 30.101562 18.597656 29.953125 20.074219 C 29.886719 20.71875 29.828125 21.140625 29.75 21.453125 C 29.703125 21.625 29.667969 21.714844 29.601562 21.839844 C 29.539062 21.960938 29.464844 22.074219 29.371094 22.175781 C 29.285156 22.273438 29.171875 22.367188 29.0625 22.441406 C 28.953125 22.515625 28.832031 22.585938 28.703125 22.632812 C 28.574219 22.679688 28.441406 22.714844 28.308594 22.730469 C 28.175781 22.75 28.035156 22.75 27.902344 22.730469 C 27.769531 22.714844 27.628906 22.6875 27.5 22.640625 C 27.375 22.59375 27.25 22.523438 27.140625 22.449219 C 27.03125 22.371094 26.925781 22.28125 26.839844 22.179688 C 26.746094 22.082031 26.664062 21.964844 26.601562 21.84375 C 26.539062 21.722656 26.484375 21.59375 26.457031 21.460938 C 26.425781 21.328125 26.410156 21.1875 26.410156 21.054688 C 26.410156 20.921875 26.46875 20.828125 26.457031 20.652344 C 26.433594 20.3125 26.144531 19.714844 26.050781 19.148438 C 25.933594 18.464844 25.894531 17.726562 25.882812 16.820312 C 25.863281 15.550781 26.078125 13.355469 26.101562 12.234375 C 26.113281 11.589844 26.148438 11.21875 26.085938 10.707031 C 26.019531 10.183594 25.5 9.402344 25.714844 9.140625 C 25.9375 8.859375 27.152344 8.871094 27.53125 9.179688 C 27.914062 9.492188 27.84375 10.3125 27.960938 11.027344 C 28.117188 11.984375 28.238281 13.847656 28.269531 14.429688 C 28.28125 14.632812 28.285156 14.703125 28.273438 14.835938 C 28.261719 14.96875 28.234375 15.101562 28.1875 15.230469 C 28.140625 15.359375 28.074219 15.480469 28 15.589844 C 27.925781 15.699219 27.839844 15.804688 27.738281 15.890625 C 27.640625 15.984375 27.523438 16.066406 27.410156 16.128906 C 27.292969 16.195312 27.160156 16.242188 27.03125 16.277344 C 26.902344 16.308594 26.765625 16.332031 26.628906 16.332031 C 26.496094 16.332031 26.355469 16.316406 26.230469 16.285156 C 26.101562 16.257812 25.96875 16.207031 25.851562 16.148438 C 25.730469 16.089844 25.613281 16.015625 25.515625 15.925781 C 25.410156 15.839844 25.316406 15.734375 25.242188 15.625 C 25.167969 15.515625 25.121094 15.445312 25.050781 15.269531 C 24.882812 14.863281 24.582031 13.789062 24.429688 13.128906 C 24.308594 12.578125 24.25 12.160156 24.179688 11.589844 C 24.09375 10.875 24.015625 9.988281 23.984375 9.179688 C 23.949219 8.371094 23.882812 7.210938 23.964844 6.757812 C 24 6.574219 24.039062 6.496094 24.105469 6.382812 C 24.164062 6.265625 24.242188 6.148438 24.332031 6.050781 C 24.417969 5.953125 24.515625 5.851562 24.628906 5.777344 C 24.738281 5.703125 24.859375 5.632812 24.980469 5.585938 C 25.101562 5.539062 25.238281 5.503906 25.371094 5.488281 C 25.503906 5.46875 25.636719 5.464844 25.769531 5.480469 C 25.90625 5.5 26.039062 5.527344 26.160156 5.574219 C 26.289062 5.621094 26.410156 5.683594 26.519531 5.761719 C 26.628906 5.835938 26.734375 5.921875 26.820312 6.019531 C 26.910156 6.121094 26.992188 6.230469 27.054688 6.347656 C 27.117188 6.460938 27.160156 6.53125 27.207031 6.722656 C 27.320312 7.234375 27.4375 9.082031 27.425781 9.667969 C 27.421875 9.917969 27.414062 10.035156 27.367188 10.207031 C 27.320312 10.382812 27.246094 10.554688 27.148438 10.707031 C 27.046875 10.859375 26.921875 10.996094 26.777344 11.109375 C 26.636719 11.21875 26.460938 11.304688 26.292969 11.363281 C 26.125 11.421875 25.9375 11.457031 25.757812 11.457031 C 25.578125 11.457031 25.386719 11.433594 25.21875 11.375 C 25.050781 11.316406 24.882812 11.230469 24.738281 11.125 C 24.59375 11.015625 24.457031 10.882812 24.355469 10.730469 C 24.25 10.585938 24.167969 10.410156 24.121094 10.238281 C 24.074219 10.0625 24.050781 9.875 24.058594 9.695312 C 24.0625 9.515625 24.105469 9.332031 24.167969 9.164062 C 24.230469 8.996094 24.332031 8.835938 24.445312 8.699219 C 24.5625 8.558594 24.707031 8.429688 24.859375 8.339844 C 25.011719 8.246094 25.191406 8.167969 25.363281 8.128906 C 25.539062 8.089844 25.730469 8.082031 25.910156 8.101562 C 26.089844 8.117188 26.269531 8.164062 26.433594 8.238281 C 26.59375 8.316406 26.757812 8.417969 26.890625 8.542969 C 27.023438 8.664062 27.136719 8.8125 27.222656 8.972656 C 27.308594 9.128906 27.375 9.3125 27.402344 9.488281 C 27.429688 9.660156 27.4375 9.855469 27.410156 10.027344 C 27.378906 10.207031 27.320312 10.386719 27.238281 10.550781 C 27.160156 10.707031 27.035156 10.863281 26.910156 10.984375 C 26.78125 11.109375 26.625 11.21875 26.460938 11.292969 C 26.300781 11.367188 26.121094 11.421875 25.9375 11.445312 C 25.757812 11.46875 25.566406 11.457031 25.394531 11.421875 C 25.21875 11.386719 25.039062 11.316406 24.886719 11.222656 C 24.730469 11.132812 24.585938 11.007812 24.46875 10.875 C 24.355469 10.742188 24.25 10.578125 24.179688 10.410156 C 24.109375 10.25 24.09375 10.125 24.058594 9.882812 C 23.984375 9.332031 23.914062 7.664062 23.925781 7.160156 C 23.929688 6.96875 23.9375 6.886719 23.964844 6.757812 C 23.996094 6.632812 24.039062 6.496094 24.105469 6.382812 C 24.164062 6.265625 24.242188 6.148438 24.332031 6.050781 C 24.417969 5.953125 24.515625 5.851562 24.628906 5.777344 C 24.738281 5.703125 24.859375 5.632812 24.980469 5.585938 C 25.101562 5.539062 25.238281 5.503906 25.371094 5.488281 C 25.503906 5.46875 25.636719 5.464844 25.769531 5.480469 C 25.90625 5.5 26.039062 5.527344 26.160156 5.574219 C 26.289062 5.621094 26.410156 5.683594 26.519531 5.761719 C 26.628906 5.835938 26.734375 5.921875 26.820312 6.019531 C 26.910156 6.121094 26.992188 6.230469 27.054688 6.347656 C 27.117188 6.460938 27.164062 6.539062 27.207031 6.722656 C 27.296875 7.160156 27.234375 8.273438 27.28125 9.011719 C 27.320312 9.703125 27.355469 10.363281 27.453125 11.027344 C 27.546875 11.683594 27.710938 12.363281 27.855469 12.960938 C 27.984375 13.488281 28.222656 14.085938 28.269531 14.429688 C 28.289062 14.601562 28.285156 14.703125 28.273438 14.835938 C 28.261719 14.96875 28.234375 15.101562 28.1875 15.230469 C 28.140625 15.359375 28.074219 15.480469 28 15.589844 C 27.925781 15.699219 27.839844 15.804688 27.738281 15.890625 C 27.640625 15.984375 27.523438 16.066406 27.410156 16.128906 C 27.292969 16.195312 27.160156 16.242188 27.03125 16.277344 C 26.902344 16.308594 26.765625 16.332031 26.628906 16.332031 C 26.496094 16.332031 26.355469 16.316406 26.230469 16.285156 C 26.101562 16.257812 25.96875 16.207031 25.851562 16.148438 C 25.730469 16.089844 25.613281 16.015625 25.515625 15.925781 C 25.410156 15.839844 25.316406 15.734375 25.242188 15.625 C 25.167969 15.515625 25.101562 15.429688 25.050781 15.269531 C 24.964844 15.019531 24.910156 14.636719 24.859375 14.242188 C 24.789062 13.726562 24.730469 13.074219 24.691406 12.425781 C 24.644531 11.675781 24.582031 10.757812 24.605469 10.003906 C 24.628906 9.34375 24.585938 8.703125 24.796875 8.144531 C 25 7.59375 25.335938 6.914062 25.828125 6.664062 C 26.367188 6.394531 27.460938 6.421875 27.976562 6.707031 C 28.429688 6.957031 28.652344 7.589844 28.867188 8.089844 C 29.085938 8.59375 29.183594 9.167969 29.277344 9.71875 C 29.371094 10.273438 29.398438 10.71875 29.410156 11.398438 C 29.429688 12.453125 29.261719 14.289062 29.242188 15.433594 C 29.230469 16.28125 29.207031 16.910156 29.265625 17.640625 C 29.324219 18.367188 29.503906 19.132812 29.585938 19.804688 C 29.65625 20.390625 29.792969 21.101562 29.75 21.453125 C 29.726562 21.628906 29.667969 21.714844 29.601562 21.839844 C 29.539062 21.960938 29.464844 22.074219 29.371094 22.175781 C 29.285156 22.273438 29.171875 22.367188 29.0625 22.441406 C 28.953125 22.515625 28.832031 22.585938 28.703125 22.632812 C 28.574219 22.679688 28.441406 22.714844 28.308594 22.730469 C 28.175781 22.75 28.035156 22.75 27.902344 22.730469 C 27.769531 22.714844 27.636719 22.6875 27.507812 22.640625 C 27.378906 22.59375 27.25 22.523438 27.140625 22.449219 C 27.03125 22.371094 26.925781 22.28125 26.839844 22.179688 C 26.753906 22.082031 26.671875 21.964844 26.605469 21.84375 C 26.542969 21.722656 26.492188 21.59375 26.457031 21.460938 C 26.421875 21.328125 26.402344 21.226562 26.410156 21.054688 C 26.414062 20.753906 26.550781 20.269531 26.601562 19.800781 C 26.664062 19.207031 26.695312 18.679688 26.730469 17.769531 C 26.804688 15.898438 26.339844 10.875 26.898438 9.199219 C 27.164062 8.394531 27.5 7.785156 28.035156 7.601562 C 28.644531 7.390625 30.042969 7.851562 30.480469 8.320312 C 30.824219 8.691406 30.71875 9.324219 30.792969 9.871094 C 30.875 10.476562 30.902344 11.074219 30.933594 11.792969 C 30.972656 12.703125 30.902344 14.027344 30.96875 14.910156 C 31.015625 15.566406 31.136719 16.039062 31.195312 16.613281 C 31.257812 17.203125 31.398438 17.859375 31.332031 18.425781 C 31.277344 18.941406 31.140625 19.453125 30.878906 19.886719 C 30.609375 20.347656 30.246094 20.730469 29.707031 21.09375 C 28.933594 21.617188 27.390625 22.257812 26.46875 22.417969 C 25.824219 22.535156 25.253906 22.628906 24.773438 22.359375 C 24.199219 22.042969 23.769531 21.210938 23.402344 20.355469 C 22.890625 19.148438 23 16.628906 22.421875 15.621094 C 22.066406 15 21.257812 14.929688 21.074219 14.394531 C 20.863281 13.796875 21.007812 12.59375 21.433594 12.140625 C 21.847656 11.707031 22.925781 11.519531 23.519531 11.671875 C 24.0625 11.808594 24.503906 12.414062 24.882812 12.859375 C 25.242188 13.285156 25.492188 13.785156 25.746094 14.265625 C 26.003906 14.742188 26.328125 15.382812 26.414062 15.730469 C 26.460938 15.910156 26.449219 16.019531 26.445312 16.164062 C 26.4375 16.308594 26.414062 16.457031 26.375 16.59375 C 26.335938 16.734375 26.269531 16.867188 26.195312 16.996094 C 26.121094 17.117188 26.03125 17.238281 25.933594 17.34375 C 25.835938 17.449219 25.714844 17.542969 25.589844 17.617188 C 25.46875 17.691406 25.335938 17.757812 25.195312 17.796875 C 25.058594 17.84375 24.910156 17.867188 24.765625 17.878906 C 24.621094 17.890625 24.476562 17.878906 24.332031 17.855469 C 24.191406 17.832031 24.046875 17.789062 23.914062 17.734375 C 23.78125 17.675781 23.652344 17.597656 23.535156 17.511719 C 23.417969 17.425781 23.316406 17.316406 23.226562 17.203125 C 23.136719 17.089844 23.058594 16.964844 22.996094 16.832031 C 22.9375 16.707031 22.910156 16.605469 22.863281 16.421875 C 22.78125 16.078125 22.734375 15.40625 22.617188 14.898438 C 22.5 14.386719 22.285156 13.929688 22.160156 13.378906 C 22.015625 12.746094 21.5625 11.519531 21.824219 11.300781 C 22.0625 11.101562 23.332031 11.539062 23.449219 11.875 C 23.566406 12.210938 22.953125 12.976562 22.554688 13.308594 C 22.171875 13.628906 21.574219 13.894531 21.109375 13.855469 C 20.636719 13.8125 19.957031 13.511719 19.753906 13.058594 C 19.476562 12.441406 20.394531 10.183594 20.320312 10.160156 C 20.265625 10.144531 19.824219 11.652344 19.730469 11.636719 C 19.628906 11.613281 19.730469 10.277344 19.785156 9.65625 C 19.832031 9.105469 19.96875 8.617188 20.003906 8.101562 C 20.035156 7.59375 20.011719 6.9375 19.980469 6.589844 C 19.964844 6.40625 19.917969 6.304688 19.917969 6.167969 C 19.917969 6.027344 19.933594 5.882812 19.964844 5.742188 C 19.992188 5.601562 20.039062 5.464844 20.105469 5.335938 C 20.167969 5.207031 20.25 5.09375 20.34375 4.980469 C 20.433594 4.871094 20.539062 4.765625 20.65625 4.6875 C 20.773438 4.605469 20.898438 4.535156 21.027344 4.484375 C 21.160156 4.429688 21.300781 4.394531 21.4375 4.371094 C 21.578125 4.347656 21.730469 4.347656 21.867188 4.359375 C 22.007812 4.371094 22.152344 4.40625 22.285156 4.453125 C 22.421875 4.5 22.554688 4.570312 22.671875 4.644531 C 22.785156 4.71875 22.902344 4.8125 22.996094 4.917969 C 23.09375 5.023438 23.175781 5.144531 23.246094 5.265625 C 23.316406 5.386719 23.34375 5.46875 23.40625 5.660156 C 23.554688 6.109375 23.9375 7.523438 23.964844 7.988281 C 23.976562 8.1875 23.953125 8.273438 23.917969 8.414062 C 23.882812 8.546875 23.832031 8.6875 23.769531 8.808594 C 23.703125 8.929688 23.617188 9.050781 23.523438 9.15625 C 23.429688 9.261719 23.320312 9.359375 23.203125 9.441406 C 23.089844 9.523438 22.960938 9.59375 22.832031 9.640625 C 22.699219 9.691406 22.558594 9.71875 22.421875 9.738281 C 22.28125 9.753906 22.128906 9.753906 21.992188 9.738281 C 21.851562 9.71875 21.710938 9.691406 21.578125 9.640625 C 21.449219 9.59375 21.324219 9.523438 21.207031 9.441406 C 21.089844 9.359375 20.980469 9.261719 20.886719 9.15625 C 20.792969 9.050781 20.707031 8.929688 20.644531 8.808594 C 20.578125 8.6875 20.527344 8.546875 20.492188 8.414062 C 20.457031 8.273438 20.441406 8.175781 20.445312 7.988281 C 20.457031 7.625 20.589844 6.375 20.71875 6.371094 C 20.875 6.363281 21.492188 8.667969 21.359375 8.761719 C 21.304688 8.796875 21.121094 8.609375 21.015625 8.511719 C 20.917969 8.417969 20.824219 8.304688 20.75 8.1875 C 20.671875 8.070312 20.609375 7.941406 20.5625 7.808594 C 20.515625 7.675781 20.480469 7.53125 20.46875 7.390625 C 20.457031 7.253906 20.464844 7.113281 20.488281 6.972656 C 20.511719 6.835938 20.546875 6.6875 20.597656 6.5625 C 20.648438 6.433594 20.726562 6.304688 20.804688 6.195312 C 20.886719 6.085938 20.992188 5.976562 21.097656 5.886719 C 21.207031 5.792969 21.324219 5.71875 21.449219 5.65625 C 21.578125 5.597656 21.710938 5.550781 21.851562 5.523438 C 21.992188 5.492188 22.136719 5.476562 22.277344 5.480469 C 22.414062 5.488281 22.558594 5.503906 22.695312 5.546875 C 22.828125 5.578125 22.949219 5.621094 23.082031 5.707031 C 23.273438 5.835938 23.722656 6.277344 23.699219 6.304688 C 23.667969 6.347656 22.328125 5.777344 22.164062 5.324219 C 22.003906 4.878906 22.636719 4.300781 22.710938 3.625 C 22.820312 2.664062 22.242188 1.011719 22.421875 0.09375 C 22.546875 -0.550781 22.773438 -1.113281 23.214844 -1.464844 C 23.703125 -1.851562 24.640625 -1.957031 25.335938 -1.984375 C 26.003906 -2.015625 26.808594 -1.992188 27.304688 -1.683594 C 27.75 -1.40625 28.011719 -0.847656 28.234375 -0.335938 C 28.472656 0.210938 28.582031 0.773438 28.644531 1.507812 C 28.730469 2.570312 28.527344 4.84375 28.441406 5.464844 C 28.414062 5.660156 28.402344 5.726562 28.355469 5.847656 C 28.308594 5.96875 28.25 6.089844 28.175781 6.195312 C 28.105469 6.300781 28.011719 6.398438 27.917969 6.484375 C 27.820312 6.574219 27.714844 6.648438 27.601562 6.710938 C 27.484375 6.769531 27.363281 6.824219 27.234375 6.851562 C 27.105469 6.886719 26.972656 6.902344 26.84375 6.902344 C 26.71875 6.902344 26.589844 6.890625 26.460938 6.863281 C 26.335938 6.835938 26.207031 6.78125 26.089844 6.722656 C 25.972656 6.664062 25.871094 6.589844 25.769531 6.507812 C 25.671875 6.421875 25.585938 6.324219 25.507812 6.21875 C 25.433594 6.113281 25.375 6.027344 25.324219 5.871094 C 25.230469 5.609375 25.265625 5.140625 25.125 4.753906 C 24.957031 4.289062 24.574219 3.75 24.289062 3.308594 C 24.035156 2.914062 23.644531 2.503906 23.507812 2.234375 C 23.429688 2.089844 23.414062 2.003906 23.390625 1.882812 C 23.367188 1.757812 23.355469 1.632812 23.359375 1.507812 C 23.367188 1.386719 23.390625 1.261719 23.425781 1.136719 C 23.460938 1.023438 23.511719 0.898438 23.574219 0.796875 C 23.640625 0.691406 23.714844 0.585938 23.800781 0.5 C 23.890625 0.414062 23.996094 0.332031 24.097656 0.265625 C 24.203125 0.203125 24.320312 0.144531 24.433594 0.109375 C 24.550781 0.0703125 24.679688 0.046875 24.800781 0.0390625 C 24.921875 0.0351562 25.035156 0.0234375 25.171875 0.0585938 C 25.371094 0.105469 25.691406 0.242188 25.859375 0.355469 C 25.980469 0.433594 26.125 0.617188 26.125 0.617188 " clip-rule="nonzero"/></clipPath><clipPath id="4155104eff"><path d="M 18.019531 10.472656 L 22.289062 10.472656 L 22.289062 14.917969 L 18.019531 14.917969 Z M 18.019531 10.472656 " clip-rule="nonzero"/></clipPath><clipPath id="6ba1424fd8"><path d="M 18.964844 11.605469 C 19.859375 11.644531 20.289062 11.34375 20.464844 11.480469 C 20.644531 11.625 20.601562 12.558594 20.621094 12.558594 C 20.636719 12.558594 20.429688 11.539062 20.550781 11.464844 C 20.679688 11.386719 21.160156 11.898438 21.398438 12.179688 C 21.632812 12.460938 22.042969 12.996094 21.96875 13.148438 C 21.898438 13.289062 21.339844 13.027344 21.066406 13.125 C 20.789062 13.226562 20.289062 13.722656 20.300781 13.742188 C 20.308594 13.746094 20.527344 13.65625 20.527344 13.617188 C 20.527344 13.570312 20.324219 13.539062 20.238281 13.480469 C 20.148438 13.414062 20.0625 13.335938 20 13.246094 C 19.933594 13.152344 19.878906 13.046875 19.84375 12.9375 C 19.808594 12.824219 19.785156 12.707031 19.777344 12.589844 C 19.773438 12.472656 19.789062 12.347656 19.820312 12.238281 C 19.847656 12.125 19.902344 12.015625 19.957031 11.925781 C 20.015625 11.824219 20.097656 11.742188 20.179688 11.667969 C 20.261719 11.605469 20.359375 11.542969 20.457031 11.511719 C 20.558594 11.480469 20.667969 11.460938 20.773438 11.460938 C 20.875 11.460938 20.980469 11.480469 21.078125 11.519531 C 21.179688 11.558594 21.269531 11.625 21.351562 11.695312 C 21.433594 11.765625 21.507812 11.859375 21.566406 11.957031 C 21.625 12.054688 21.664062 12.164062 21.695312 12.277344 C 21.722656 12.386719 21.730469 12.511719 21.722656 12.628906 C 21.71875 12.746094 21.6875 12.867188 21.648438 12.976562 C 21.609375 13.082031 21.550781 13.191406 21.480469 13.277344 C 21.410156 13.363281 21.324219 13.441406 21.234375 13.5 C 21.148438 13.558594 21.042969 13.597656 20.945312 13.625 C 20.847656 13.648438 20.738281 13.648438 20.632812 13.636719 C 20.527344 13.625 20.421875 13.589844 20.332031 13.539062 C 20.238281 13.488281 20.144531 13.414062 20.070312 13.328125 C 19.992188 13.25 19.929688 13.152344 19.882812 13.046875 C 19.835938 12.945312 19.800781 12.824219 19.789062 12.707031 C 19.777344 12.589844 19.777344 12.464844 19.796875 12.355469 C 19.8125 12.238281 19.847656 12.125 19.902344 12.023438 C 19.953125 11.925781 20.023438 11.824219 20.097656 11.746094 C 20.171875 11.667969 20.265625 11.597656 20.359375 11.550781 C 20.453125 11.503906 20.5625 11.472656 20.667969 11.460938 C 20.773438 11.445312 20.863281 11.414062 20.980469 11.484375 C 21.253906 11.65625 21.800781 12.539062 21.992188 13.054688 C 22.140625 13.460938 22.28125 13.945312 22.164062 14.257812 C 22.0625 14.550781 21.707031 14.910156 21.382812 14.90625 C 20.824219 14.898438 19.539062 13.558594 19.152344 12.96875 C 18.9375 12.644531 18.832031 12.347656 18.839844 12.035156 C 18.84375 11.714844 18.996094 11.296875 19.203125 11.082031 C 19.417969 10.863281 19.808594 10.839844 20.117188 10.746094 C 20.410156 10.664062 20.730469 10.480469 21.015625 10.542969 C 21.3125 10.609375 21.6875 10.890625 21.839844 11.171875 C 21.984375 11.441406 22.003906 11.84375 21.945312 12.164062 C 21.886719 12.5 21.695312 12.890625 21.460938 13.113281 C 21.234375 13.328125 20.898438 13.40625 20.585938 13.488281 C 20.238281 13.570312 19.777344 13.589844 19.460938 13.589844 C 19.222656 13.589844 18.984375 13.558594 18.832031 13.53125 C 18.746094 13.519531 18.703125 13.519531 18.628906 13.488281 C 18.523438 13.441406 18.375 13.347656 18.28125 13.246094 C 18.1875 13.140625 18.113281 12.964844 18.070312 12.847656 C 18.042969 12.761719 18.035156 12.703125 18.035156 12.609375 C 18.035156 12.484375 18.058594 12.296875 18.117188 12.160156 C 18.175781 12.023438 18.292969 11.886719 18.378906 11.800781 C 18.4375 11.742188 18.484375 11.714844 18.558594 11.683594 C 18.664062 11.636719 18.964844 11.605469 18.964844 11.605469 " clip-rule="nonzero"/></clipPath><clipPath id="e2e1c6835c"><path d="M 19.40625 8.09375 L 22.726562 8.09375 L 22.726562 12.925781 L 19.40625 12.925781 Z M 19.40625 8.09375 " clip-rule="nonzero"/></clipPath><clipPath id="b7542ef9f9"><path d="M 22.695312 9.582031 C 20.371094 12.917969 19.574219 11.832031 19.644531 11.46875 C 19.789062 11.175781 21.097656 10.742188 21.386719 10.960938 C 21.675781 11.175781 21.75 12.265625 21.53125 12.554688 C 21.316406 12.847656 20.152344 12.917969 19.863281 12.628906 C 19.425781 12.121094 20.296875 8.925781 20.953125 8.417969 C 21.316406 8.128906 21.96875 8.203125 22.257812 8.417969 C 22.546875 8.636719 22.695312 9.582031 22.695312 9.582031 " clip-rule="nonzero"/></clipPath></defs><g clip-path="url(#b67810b9f6)"><path fill="#ffffff" d="M 0.484375 0 L 29.515625 0 L 29.515625 29.03125 L 0.484375 29.03125 Z M 0.484375 0 " fill-opacity="1" fill-rule="nonzero"/><path fill="#000000" d="M 0.484375 0 L 29.515625 0 L 29.515625 29.03125 L 0.484375 29.03125 Z M 0.484375 0 " fill-opacity="1" fill-rule="nonzero"/></g><g clip-path="url(#8fc015c1dd)"><path fill="#ffffff" d="M 17.9375 3.738281 C 19.421875 4.6875 20.457031 6.261719 20.636719 8.0625 C 21.222656 8.335938 21.898438 8.515625 22.621094 8.515625 C 25.234375 8.515625 27.351562 6.398438 27.351562 3.785156 C 27.351562 1.171875 25.234375 -0.945312 22.621094 -0.945312 C 20.054688 -0.898438 17.9375 1.171875 17.9375 3.738281 Z M 14.828125 13.378906 C 17.441406 13.378906 19.558594 11.261719 19.558594 8.648438 C 19.558594 6.039062 17.441406 3.921875 14.828125 3.921875 C 12.214844 3.921875 10.097656 6.039062 10.097656 8.648438 C 10.097656 11.261719 12.214844 13.378906 14.828125 13.378906 Z M 16.808594 13.695312 L 12.800781 13.695312 C 9.46875 13.695312 6.765625 16.398438 6.765625 19.730469 L 6.765625 24.730469 L 7.082031 24.820312 C 10.234375 25.8125 13.027344 26.125 15.277344 26.125 C 19.691406 26.125 22.261719 24.863281 22.441406 24.773438 L 22.753906 24.59375 L 22.800781 24.59375 L 22.800781 19.730469 C 22.84375 16.398438 20.144531 13.695312 16.808594 13.695312 Z M 24.601562 8.828125 L 20.636719 8.828125 C 20.59375 10.40625 19.917969 11.847656 18.835938 12.882812 C 21.808594 13.785156 23.972656 16.488281 23.972656 19.730469 L 23.972656 21.214844 C 27.890625 21.082031 30.140625 19.957031 30.277344 19.910156 L 30.59375 19.730469 L 30.636719 19.730469 L 30.636719 14.867188 C 30.636719 11.53125 27.933594 8.828125 24.601562 8.828125 Z M 24.601562 8.828125 " fill-opacity="1" fill-rule="nonzero"/></g><g clip-path="url(#a7addd6096)"><g clip-path="url(#978f3d80db)"><path fill="#000000" d="M 16.777344 -0.882812 L 27.007812 -0.882812 L 27.007812 10.285156 L 16.777344 10.285156 Z M 16.777344 -0.882812 " fill-opacity="1" fill-rule="nonzero"/></g></g><g clip-path="url(#6de05510b2)"><g clip-path="url(#4a2152f547)"><path fill="#000000" d="M 19.5 -2.21875 L 31.566406 -2.21875 L 31.566406 22.964844 L 19.5 22.964844 Z M 19.5 -2.21875 " fill-opacity="1" fill-rule="nonzero"/></g></g><g clip-path="url(#4155104eff)"><g clip-path="url(#6ba1424fd8)"><path fill="#000000" d="M 17.804688 10.285156 L 22.398438 10.285156 L 22.398438 15.167969 L 17.804688 15.167969 Z M 17.804688 10.285156 " fill-opacity="1" fill-rule="nonzero"/></g></g><g clip-path="url(#e2e1c6835c)"><g clip-path="url(#b7542ef9f9)"><path fill="#000000" d="M 16.742188 5.515625 L 25.597656 5.515625 L 25.597656 15.824219 L 16.742188 15.824219 Z M 16.742188 5.515625 " fill-opacity="1" fill-rule="nonzero"/></g></g></svg>