<svg xmlns="http://www.w3.org/2000/svg" xmlns:xlink="http://www.w3.org/1999/xlink" width="500" zoomAndPan="magnify" viewBox="0 0 375 374.999991" height="500" preserveAspectRatio="xMidYMid meet" version="1.0"><defs><clipPath id="f4b6030ac7"><path d="M 81 0 L 375 0 L 375 337.300781 L 81 337.300781 Z M 81 0 " clip-rule="nonzero"/></clipPath><clipPath id="30a3067eae"><path d="M 213.03125 0 L 341 0 L 341 131 L 213.03125 131 Z M 213.03125 0 " clip-rule="nonzero"/></clipPath><clipPath id="f60e9f1ff3"><path d="M 303.226562 18.074219 C 321.375 57.300781 337.800781 71.101562 334.800781 77.476562 C 331.199219 85.125 299.25 86.25 284.25 84.523438 C 271.5 83.023438 251.550781 77.925781 250.050781 71.25 C 248.550781 64.574219 273.75 55.050781 275.550781 44.550781 C 277.5 33.148438 253.800781 9.226562 257.625 4.726562 C 261.074219 0.675781 283.648438 7.425781 291.601562 13.648438 C 298.648438 19.199219 302.25 31.875 304.800781 38.101562 C 306.226562 41.625 306.898438 43.875 307.351562 46.875 C 307.800781 49.875 307.875 52.949219 307.648438 55.949219 C 307.425781 58.949219 306.75 62.023438 305.773438 64.875 C 304.800781 67.726562 303.449219 70.5 301.800781 73.050781 C 300.148438 75.601562 298.199219 78 296.023438 80.101562 C 293.851562 82.199219 291.375 84 288.75 85.5 C 286.125 87 283.273438 88.199219 280.351562 89.023438 C 277.425781 89.851562 274.351562 90.375 271.351562 90.449219 C 268.351562 90.523438 265.199219 90.226562 262.273438 89.625 C 259.351562 89.023438 256.351562 87.976562 253.648438 86.699219 C 250.949219 85.425781 248.324219 83.699219 246 81.824219 C 243.675781 79.875 241.574219 77.625 239.773438 75.226562 C 237.976562 72.824219 236.101562 71.101562 235.273438 67.351562 C 233.699219 59.925781 238.648438 31.800781 238.949219 31.800781 C 239.25 31.800781 240.824219 67.425781 236.851562 68.925781 C 234 70.050781 226.875 59.851562 223.273438 55.5 C 220.425781 51.976562 218.175781 48.898438 216.523438 45.148438 C 214.875 41.398438 213.824219 37.199219 213.449219 33.148438 C 213.074219 29.101562 213.375 24.824219 214.351562 20.851562 C 215.324219 16.875 216.976562 12.898438 219.148438 9.449219 C 221.324219 6 224.175781 2.699219 227.324219 0.148438 C 230.476562 -2.398438 234.226562 -4.574219 238.050781 -6 C 241.875 -7.425781 246.074219 -8.25 250.125 -8.398438 C 254.175781 -8.550781 258.523438 -8.023438 262.425781 -6.824219 C 266.324219 -5.625 270.226562 -3.75 273.523438 -1.425781 C 276.824219 0.898438 279.898438 3.976562 282.300781 7.273438 C 284.699219 10.574219 286.726562 14.398438 287.925781 18.300781 C 289.125 22.199219 289.726562 26.476562 289.648438 30.523438 C 289.574219 34.574219 288.75 38.851562 287.398438 42.675781 C 286.050781 46.5 283.949219 50.25 281.398438 53.476562 C 278.925781 56.625 275.699219 59.625 272.324219 61.800781 C 268.949219 64.050781 264.976562 65.773438 261 66.75 C 257.101562 67.726562 252.75 68.175781 248.699219 67.875 C 244.648438 67.574219 240.375 66.523438 236.625 64.949219 C 232.875 63.375 229.273438 61.050781 226.199219 58.351562 C 223.199219 55.648438 220.425781 52.351562 218.398438 48.824219 C 216.375 45.300781 214.875 41.175781 214.050781 37.199219 C 213.226562 33.226562 213.074219 28.949219 213.601562 24.898438 C 214.125 20.851562 215.324219 16.726562 217.125 13.050781 C 218.925781 9.375 221.398438 5.851562 224.25 2.925781 C 227.101562 0 230.625 -2.550781 234.226562 -4.351562 C 237.898438 -6.148438 242.023438 -7.425781 246.074219 -8.023438 C 250.125 -8.625 254.398438 -8.550781 258.375 -7.800781 C 262.351562 -7.050781 266.476562 -5.550781 270 -3.601562 C 273.601562 -1.648438 279.976562 3.675781 279.75 4.050781 C 279.523438 4.351562 271.726562 -0.523438 271.273438 0.148438 C 270.226562 1.574219 298.5 20.699219 303.300781 33.449219 C 307.726562 45.226562 301.351562 72.898438 301.648438 72.898438 C 301.949219 72.898438 303.375 38.25 304.800781 38.101562 C 305.550781 38.023438 306.898438 43.875 307.351562 46.875 C 307.800781 49.875 307.875 52.949219 307.648438 55.949219 C 307.425781 58.949219 306.75 62.023438 305.773438 64.875 C 304.800781 67.726562 303.449219 70.5 301.800781 73.050781 C 300.148438 75.601562 298.199219 78 296.023438 80.101562 C 293.851562 82.199219 291.375 84 288.75 85.5 C 286.125 87 283.273438 88.199219 280.351562 89.023438 C 277.425781 89.851562 274.351562 90.375 271.351562 90.449219 C 268.351562 90.523438 265.199219 90.226562 262.273438 89.625 C 259.351562 89.023438 256.351562 87.976562 253.648438 86.699219 C 250.949219 85.425781 248.324219 83.699219 246 81.824219 C 243.675781 79.875 241.648438 77.925781 239.773438 75.226562 C 237.449219 71.851562 235.574219 68.625 233.550781 62.773438 C 229.425781 50.851562 214.726562 16.726562 221.625 5.625 C 227.550781 -3.898438 250.574219 -7.351562 263.476562 -5.324219 C 276.148438 -3.300781 288.226562 8.699219 298.648438 17.101562 C 308.398438 24.898438 317.476562 33.226562 324.300781 42.976562 C 331.050781 52.648438 337.800781 63.675781 339.601562 75.449219 C 341.550781 88.050781 341.625 107.398438 334.050781 116.476562 C 326.324219 125.699219 304.125 132.601562 292.949219 129.824219 C 283.050781 127.425781 275.851562 114.675781 269.25 105.601562 C 262.574219 96.375 258.074219 84.898438 253.199219 74.699219 C 248.550781 64.949219 242.925781 52.425781 240.449219 45.75 C 239.175781 42.300781 238.5 40.5 238.050781 37.800781 C 237.601562 35.101562 237.375 32.25 237.601562 29.550781 C 237.824219 26.851562 238.351562 24.074219 239.175781 21.449219 C 240 18.824219 241.199219 16.273438 242.625 13.949219 C 244.050781 11.625 245.851562 9.449219 247.800781 7.5 C 249.75 5.550781 252 3.824219 254.324219 2.398438 C 256.648438 0.976562 259.273438 -0.148438 261.898438 -0.898438 C 264.523438 -1.726562 267.300781 -2.175781 270.074219 -2.324219 C 272.773438 -2.476562 275.625 -2.25 278.324219 -1.726562 C 281.023438 -1.199219 283.726562 -0.375 286.199219 0.75 C 288.675781 1.875 291.074219 3.375 293.25 5.101562 C 295.351562 6.824219 297.375 8.851562 299.023438 11.023438 C 300.675781 13.199219 303.226562 18.148438 303.226562 18.148438 " clip-rule="nonzero"/></clipPath><clipPath id="cd22611922"><path d="M 248 0 L 375 0 L 375 294 L 248 294 Z M 248 0 " clip-rule="nonzero"/></clipPath><clipPath id="18889b795e"><path d="M 331.199219 7.949219 C 342.523438 22.273438 347.101562 27.976562 350.398438 34.199219 C 354 41.023438 357.601562 51.300781 359.324219 57.148438 C 360.375 60.601562 360.898438 63.074219 361.125 65.550781 C 361.351562 67.425781 361.273438 68.925781 361.125 70.574219 C 360.976562 72.226562 360.601562 73.949219 360 75.523438 C 359.398438 77.101562 358.648438 78.675781 357.675781 80.023438 C 356.773438 81.375 355.574219 82.648438 354.375 83.773438 C 353.101562 84.898438 351.75 85.875 350.25 86.699219 C 348.75 87.449219 347.175781 88.125 345.523438 88.5 C 343.875 88.949219 342.148438 89.175781 340.5 89.175781 C 338.851562 89.175781 337.199219 89.023438 335.550781 88.648438 C 333.898438 88.273438 332.25 87.601562 330.75 86.851562 C 329.25 86.101562 327.898438 85.125 326.625 84.074219 C 325.351562 82.949219 324.226562 81.675781 323.25 80.324219 C 322.273438 78.976562 321.449219 77.398438 320.851562 75.824219 C 320.25 74.25 319.875 73.425781 319.574219 70.949219 C 318.675781 63.300781 318.675781 35.851562 320.851562 23.851562 C 322.273438 16.125 325.574219 5.101562 327.300781 5.324219 C 330.148438 5.625 332.925781 43.574219 332.699219 57.074219 C 332.550781 65.773438 332.101562 72.074219 329.699219 78.601562 C 327.375 84.824219 323.101562 90.449219 318.675781 95.476562 C 314.175781 100.574219 309.675781 105.898438 302.925781 108.898438 C 294.300781 112.726562 275.398438 114.675781 269.625 113.175781 C 267.300781 112.574219 266.550781 111.226562 265.199219 109.949219 C 263.925781 108.75 262.726562 107.25 261.75 105.75 C 260.773438 104.25 259.949219 102.601562 259.351562 100.875 C 258.75 99.148438 258.300781 97.273438 258.148438 95.476562 C 258 93.675781 258.074219 91.800781 258.375 90 C 258.675781 88.199219 259.125 86.398438 259.800781 84.75 C 260.476562 83.101562 261.449219 81.449219 262.5 80.023438 C 263.550781 78.601562 264.898438 77.175781 266.25 76.050781 C 267.675781 74.851562 269.175781 73.875 270.824219 73.050781 C 272.476562 72.300781 274.199219 71.699219 276 71.324219 C 277.800781 70.949219 279.675781 70.726562 281.476562 70.800781 C 283.273438 70.875 285.148438 71.101562 286.875 71.625 C 288.601562 72.074219 290.398438 72 291.898438 73.726562 C 295.574219 78 296.925781 103.648438 300 105 C 301.050781 105.449219 302.773438 102.824219 303.300781 103.199219 C 303.976562 103.648438 303.148438 106.875 302.699219 108.675781 C 302.25 110.398438 301.574219 112.199219 300.75 113.773438 C 299.925781 115.351562 298.800781 116.925781 297.601562 118.273438 C 296.398438 119.625 294.976562 120.898438 293.476562 121.949219 C 291.976562 123 290.324219 123.898438 288.675781 124.5 C 286.949219 125.175781 285.148438 125.550781 283.351562 125.773438 C 281.550781 126 279.601562 126 277.800781 125.773438 C 276 125.550781 274.199219 125.175781 272.476562 124.5 C 270.824219 123.898438 269.175781 123 267.675781 121.949219 C 266.175781 120.898438 264.75 119.625 263.550781 118.273438 C 262.351562 116.925781 261.226562 115.351562 260.398438 113.773438 C 259.574219 112.125 258.898438 110.398438 258.449219 108.601562 C 258 106.875 258.375 105.523438 257.851562 103.199219 C 256.875 98.925781 252.898438 89.398438 251.851562 85.125 C 251.324219 82.800781 251.023438 81.449219 251.023438 79.648438 C 251.023438 77.851562 251.25 75.976562 251.625 74.175781 C 252 72.375 252.601562 70.574219 253.425781 68.925781 C 254.25 67.273438 255.300781 65.699219 256.5 64.273438 C 257.699219 62.851562 259.050781 61.574219 260.550781 60.523438 C 262.050781 59.476562 263.699219 58.574219 265.351562 57.898438 C 267.074219 57.226562 268.875 56.773438 270.675781 56.476562 C 272.476562 56.175781 274.425781 56.175781 276.226562 56.324219 C 278.023438 56.476562 279.898438 56.925781 281.625 57.523438 C 283.351562 58.125 285.074219 59.023438 286.574219 60 C 288.074219 60.976562 289.574219 62.175781 290.773438 63.523438 C 292.050781 64.875 293.101562 66.449219 294 68.023438 C 294.898438 69.601562 295.5 70.800781 296.101562 73.125 C 297.300781 77.851562 297.976562 87.675781 298.199219 95.101562 C 298.425781 102.75 299.023438 111.074219 297.523438 118.273438 C 296.175781 124.875 291.449219 130.273438 290.175781 136.726562 C 288.898438 143.324219 292.050781 151.199219 289.949219 157.351562 C 287.851562 163.574219 279.449219 174.601562 277.351562 173.851562 C 274.726562 172.875 283.574219 147.898438 279 141.75 C 275.023438 136.351562 256.949219 140.324219 255.226562 135.898438 C 253.5 131.550781 262.273438 120.375 268.351562 115.5 C 274.648438 110.476562 285.300781 105.75 292.875 106.726562 C 300.300781 107.699219 308.773438 114.523438 313.425781 120.75 C 317.925781 126.75 318.375 135.523438 320.550781 143.175781 C 322.726562 150.976562 324.226562 159.601562 326.398438 167.023438 C 328.351562 173.625 331.273438 179.023438 332.773438 185.625 C 334.425781 192.824219 335.476562 203.699219 335.324219 208.800781 C 335.25 211.273438 334.949219 212.550781 334.425781 214.351562 C 333.898438 216.148438 333.074219 217.875 332.101562 219.523438 C 331.125 221.101562 330 222.675781 328.726562 224.023438 C 327.449219 225.375 325.875 226.574219 324.300781 227.550781 C 322.726562 228.523438 321 229.351562 319.199219 229.875 C 317.398438 230.476562 315.523438 230.773438 313.648438 230.925781 C 311.773438 231.074219 309.898438 230.925781 308.023438 230.625 C 306.226562 230.324219 304.351562 229.800781 302.625 229.050781 C 300.898438 228.300781 299.25 227.324219 297.75 226.199219 C 296.25 225.074219 294.898438 223.648438 293.773438 222.226562 C 292.574219 220.726562 291.601562 219.148438 290.773438 217.425781 C 290.023438 215.773438 290.101562 214.273438 289.050781 212.101562 C 287.101562 207.824219 276.375 198.300781 278.023438 194.398438 C 279.824219 190.050781 298.351562 193.875 303.148438 188.699219 C 307.949219 183.523438 303.074219 164.625 306.824219 163.273438 C 310.425781 162 319.875 171.601562 324.75 179.773438 C 332.550781 192.824219 337.125 224.851562 340.050781 239.625 C 341.699219 248.175781 344.625 259.199219 342.898438 260.023438 C 341.175781 260.851562 328.726562 248.699219 329.550781 244.5 C 330.449219 240.074219 346.199219 240.75 349.875 234.300781 C 355.050781 225.226562 347.25 203.699219 346.726562 188.773438 C 346.199219 174.300781 347.25 158.25 346.648438 146.101562 C 346.199219 137.101562 340.648438 125.25 344.25 122.550781 C 348.523438 119.324219 368.699219 127.425781 375.601562 134.625 C 382.351562 141.675781 384 151.875 385.800781 165 C 388.875 187.574219 382.574219 240.226562 380.625 259.273438 C 379.800781 267.601562 379.050781 273.074219 378 277.125 C 377.398438 279.300781 376.949219 280.5 376.125 282.074219 C 375.300781 283.648438 374.324219 285.148438 373.125 286.425781 C 372 287.699219 370.574219 288.898438 369.148438 289.875 C 367.726562 290.851562 366.148438 291.75 364.5 292.351562 C 362.851562 292.949219 361.125 293.398438 359.398438 293.625 C 357.675781 293.851562 355.875 293.851562 354.148438 293.625 C 352.425781 293.398438 350.625 293.023438 348.976562 292.425781 C 347.324219 291.824219 345.75 290.925781 344.324219 289.949219 C 342.898438 288.976562 341.550781 287.773438 340.425781 286.5 C 339.226562 285.226562 338.175781 283.726562 337.351562 282.148438 C 336.523438 280.574219 335.851562 278.925781 335.476562 277.199219 C 335.101562 275.476562 334.875 273.675781 334.875 271.949219 C 334.875 270.226562 335.625 269.023438 335.476562 266.773438 C 335.175781 262.351562 331.425781 254.625 330.226562 247.351562 C 328.726562 238.5 328.199219 228.976562 328.050781 217.273438 C 327.824219 200.851562 330.601562 172.5 330.898438 158.023438 C 331.050781 149.699219 331.5 144.898438 330.675781 138.300781 C 329.851562 131.550781 323.101562 121.425781 325.875 118.050781 C 328.800781 114.449219 344.476562 114.601562 349.351562 118.574219 C 354.300781 122.625 353.398438 133.199219 354.898438 142.425781 C 356.925781 154.800781 358.5 178.875 358.875 186.375 C 359.023438 189 359.101562 189.898438 358.949219 191.625 C 358.800781 193.351562 358.425781 195.074219 357.824219 196.726562 C 357.226562 198.375 356.398438 199.949219 355.425781 201.375 C 354.449219 202.800781 353.324219 204.148438 352.050781 205.273438 C 350.773438 206.476562 349.273438 207.523438 347.773438 208.351562 C 346.273438 209.175781 344.550781 209.773438 342.898438 210.226562 C 341.25 210.675781 339.449219 210.976562 337.726562 210.976562 C 336 210.976562 334.199219 210.75 332.550781 210.375 C 330.898438 210 329.175781 209.324219 327.675781 208.574219 C 326.101562 207.824219 324.601562 206.851562 323.324219 205.726562 C 321.976562 204.601562 320.773438 203.25 319.800781 201.824219 C 318.824219 200.398438 318.226562 199.5 317.324219 197.25 C 315.148438 192 311.25 178.125 309.300781 169.574219 C 307.726562 162.449219 306.976562 157.050781 306.074219 149.699219 C 304.949219 140.476562 303.976562 129 303.523438 118.574219 C 303.074219 108.148438 302.25 93.148438 303.300781 87.300781 C 303.75 84.898438 304.273438 83.925781 305.101562 82.425781 C 305.851562 80.925781 306.898438 79.425781 308.023438 78.148438 C 309.148438 76.875 310.425781 75.601562 311.851562 74.625 C 313.273438 73.648438 314.851562 72.75 316.425781 72.148438 C 318 71.550781 319.726562 71.101562 321.449219 70.875 C 323.175781 70.648438 324.898438 70.574219 326.625 70.800781 C 328.351562 71.023438 330.074219 71.398438 331.648438 72 C 333.300781 72.601562 334.875 73.425781 336.300781 74.398438 C 337.726562 75.375 339.074219 76.5 340.199219 77.773438 C 341.324219 79.050781 342.375 80.476562 343.199219 81.976562 C 344.023438 83.476562 344.550781 84.375 345.148438 86.851562 C 346.648438 93.449219 348.148438 117.300781 348 124.875 C 347.925781 128.101562 347.851562 129.601562 347.25 131.851562 C 346.648438 134.101562 345.675781 136.351562 344.398438 138.300781 C 343.125 140.25 341.476562 142.050781 339.601562 143.476562 C 337.800781 144.898438 335.550781 146.023438 333.375 146.773438 C 331.199219 147.523438 328.800781 147.976562 326.476562 147.976562 C 324.148438 147.976562 321.675781 147.675781 319.5 146.925781 C 317.324219 146.175781 315.148438 145.050781 313.273438 143.699219 C 311.398438 142.273438 309.675781 140.550781 308.324219 138.601562 C 306.976562 136.726562 305.925781 134.476562 305.324219 132.226562 C 304.726562 129.976562 304.425781 127.574219 304.5 125.25 C 304.574219 122.925781 305.101562 120.523438 305.925781 118.351562 C 306.75 116.175781 308.023438 114.148438 309.523438 112.351562 C 311.023438 110.550781 312.898438 108.898438 314.851562 107.699219 C 316.800781 106.5 319.125 105.523438 321.375 105 C 323.625 104.476562 326.101562 104.398438 328.425781 104.625 C 330.75 104.851562 333.074219 105.449219 335.175781 106.425781 C 337.273438 107.398438 339.375 108.75 341.101562 110.324219 C 342.824219 111.898438 344.25 113.851562 345.375 115.875 C 346.5 117.898438 347.324219 120.300781 347.699219 122.550781 C 348.074219 124.800781 348.148438 127.273438 347.773438 129.523438 C 347.398438 131.851562 346.648438 134.175781 345.601562 136.273438 C 344.550781 138.300781 342.976562 140.324219 341.324219 141.898438 C 339.675781 143.476562 337.648438 144.898438 335.550781 145.875 C 333.449219 146.851562 331.125 147.523438 328.800781 147.824219 C 326.476562 148.125 324 147.976562 321.75 147.523438 C 319.5 147.074219 317.175781 146.175781 315.226562 144.976562 C 313.199219 143.773438 311.324219 142.199219 309.824219 140.476562 C 308.324219 138.75 306.976562 136.648438 306.074219 134.476562 C 305.175781 132.375 304.949219 130.800781 304.5 127.648438 C 303.523438 120.523438 302.625 99 302.773438 92.476562 C 302.851562 90 302.925781 88.949219 303.300781 87.300781 C 303.675781 85.648438 304.273438 83.925781 305.101562 82.425781 C 305.851562 80.925781 306.898438 79.425781 308.023438 78.148438 C 309.148438 76.875 310.425781 75.601562 311.851562 74.625 C 313.273438 73.648438 314.851562 72.75 316.425781 72.148438 C 318 71.550781 319.726562 71.101562 321.449219 70.875 C 323.175781 70.648438 324.898438 70.574219 326.625 70.800781 C 328.351562 71.023438 330.074219 71.398438 331.648438 72 C 333.300781 72.601562 334.875 73.425781 336.300781 74.398438 C 337.726562 75.375 339.074219 76.5 340.199219 77.773438 C 341.324219 79.050781 342.375 80.476562 343.199219 81.976562 C 344.023438 83.476562 344.625 84.449219 345.148438 86.851562 C 346.351562 92.476562 345.523438 106.875 346.125 116.398438 C 346.648438 125.324219 347.101562 133.875 348.375 142.425781 C 349.574219 150.898438 351.675781 159.675781 353.550781 167.398438 C 355.199219 174.226562 358.273438 181.949219 358.875 186.375 C 359.175781 188.625 359.101562 189.898438 358.949219 191.625 C 358.800781 193.351562 358.425781 195.074219 357.824219 196.726562 C 357.226562 198.375 356.398438 199.949219 355.425781 201.375 C 354.449219 202.800781 353.324219 204.148438 352.050781 205.273438 C 350.773438 206.476562 349.273438 207.523438 347.773438 208.351562 C 346.273438 209.175781 344.550781 209.773438 342.898438 210.226562 C 341.25 210.675781 339.449219 210.976562 337.726562 210.976562 C 336 210.976562 334.199219 210.75 332.550781 210.375 C 330.898438 210 329.175781 209.324219 327.675781 208.574219 C 326.101562 207.824219 324.601562 206.851562 323.324219 205.726562 C 321.976562 204.601562 320.773438 203.25 319.800781 201.824219 C 318.824219 200.398438 318 199.273438 317.324219 197.25 C 316.199219 194.023438 315.523438 189.074219 314.851562 183.976562 C 313.949219 177.300781 313.199219 168.898438 312.675781 160.5 C 312.074219 150.824219 311.25 138.976562 311.550781 129.226562 C 311.851562 120.675781 311.324219 112.425781 314.023438 105.226562 C 316.648438 98.101562 321 89.324219 327.375 86.101562 C 334.351562 82.574219 348.449219 82.949219 355.125 86.625 C 360.976562 89.851562 363.824219 98.023438 366.601562 104.476562 C 369.449219 111 370.726562 118.425781 371.925781 125.550781 C 373.125 132.675781 373.5 138.449219 373.648438 147.226562 C 373.875 160.875 371.699219 184.574219 371.476562 199.351562 C 371.324219 210.300781 371.023438 218.398438 371.773438 227.851562 C 372.523438 237.226562 374.851562 247.125 375.898438 255.824219 C 376.800781 263.398438 378.601562 272.550781 378 277.125 C 377.699219 279.375 376.949219 280.5 376.125 282.074219 C 375.300781 283.648438 374.324219 285.148438 373.125 286.425781 C 372 287.699219 370.574219 288.898438 369.148438 289.875 C 367.726562 290.851562 366.148438 291.75 364.5 292.351562 C 362.851562 292.949219 361.125 293.398438 359.398438 293.625 C 357.675781 293.851562 355.875 293.851562 354.148438 293.625 C 352.425781 293.398438 350.699219 293.023438 349.050781 292.425781 C 347.398438 291.824219 345.75 290.925781 344.324219 289.949219 C 342.898438 288.976562 341.550781 287.773438 340.425781 286.5 C 339.300781 285.226562 338.25 283.726562 337.425781 282.148438 C 336.601562 280.574219 335.925781 278.925781 335.476562 277.199219 C 335.023438 275.476562 334.800781 274.199219 334.875 271.949219 C 334.949219 268.050781 336.675781 261.824219 337.351562 255.75 C 338.175781 248.101562 338.550781 241.273438 339 229.5 C 339.976562 205.351562 333.976562 140.476562 341.175781 118.800781 C 344.625 108.449219 348.976562 100.574219 355.875 98.175781 C 363.75 95.476562 381.824219 101.398438 387.449219 107.476562 C 391.875 112.273438 390.523438 120.449219 391.5 127.5 C 392.550781 135.300781 392.925781 143.023438 393.300781 152.324219 C 393.824219 164.101562 392.925781 181.199219 393.75 192.601562 C 394.351562 201.074219 395.925781 207.148438 396.675781 214.574219 C 397.5 222.226562 399.300781 230.699219 398.476562 237.976562 C 397.726562 244.648438 396 251.25 392.625 256.875 C 389.101562 262.800781 384.449219 267.75 377.476562 272.476562 C 367.5 279.226562 347.550781 287.476562 335.625 289.574219 C 327.300781 291.074219 319.949219 292.273438 313.726562 288.824219 C 306.300781 284.699219 300.75 273.976562 296.023438 262.949219 C 289.425781 247.351562 290.851562 214.800781 283.351562 201.75 C 278.773438 193.726562 268.351562 192.824219 265.949219 185.925781 C 263.25 178.199219 265.125 162.675781 270.601562 156.824219 C 275.925781 151.199219 289.875 148.800781 297.523438 150.75 C 304.574219 152.550781 310.273438 160.351562 315.148438 166.125 C 319.800781 171.601562 323.023438 178.050781 326.324219 184.273438 C 329.625 190.425781 333.824219 198.675781 334.949219 203.175781 C 335.550781 205.5 335.398438 206.925781 335.324219 208.800781 C 335.25 210.675781 334.949219 212.550781 334.425781 214.351562 C 333.898438 216.148438 333.074219 217.875 332.101562 219.523438 C 331.125 221.101562 330 222.675781 328.726562 224.023438 C 327.449219 225.375 325.875 226.574219 324.300781 227.550781 C 322.726562 228.523438 321 229.351562 319.199219 229.875 C 317.398438 230.476562 315.523438 230.773438 313.648438 230.925781 C 311.773438 231.074219 309.898438 230.925781 308.023438 230.625 C 306.226562 230.324219 304.351562 229.800781 302.625 229.050781 C 300.898438 228.300781 299.25 227.324219 297.75 226.199219 C 296.25 225.074219 294.898438 223.648438 293.773438 222.226562 C 292.574219 220.726562 291.601562 219.148438 290.773438 217.425781 C 290.023438 215.773438 289.648438 214.5 289.050781 212.101562 C 288 207.675781 287.398438 198.976562 285.898438 192.449219 C 284.398438 185.851562 281.625 179.925781 279.976562 172.800781 C 278.101562 164.625 272.25 148.800781 275.625 145.949219 C 278.699219 143.398438 295.125 149.023438 296.625 153.375 C 298.125 157.726562 290.25 167.625 285.074219 171.898438 C 280.125 176.023438 272.398438 179.476562 266.398438 178.949219 C 260.324219 178.425781 251.550781 174.523438 248.925781 168.675781 C 245.324219 160.726562 257.175781 131.550781 256.199219 131.25 C 255.523438 131.023438 249.824219 150.523438 248.625 150.300781 C 247.273438 150 248.625 132.75 249.300781 124.726562 C 249.898438 117.601562 251.699219 111.300781 252.148438 104.625 C 252.523438 98.101562 252.226562 89.625 251.851562 85.125 C 251.625 82.726562 251.023438 81.449219 251.023438 79.648438 C 251.023438 77.851562 251.25 75.976562 251.625 74.175781 C 252 72.375 252.601562 70.574219 253.425781 68.925781 C 254.25 67.273438 255.300781 65.773438 256.5 64.351562 C 257.699219 62.925781 259.050781 61.574219 260.550781 60.523438 C 262.050781 59.476562 263.699219 58.574219 265.351562 57.898438 C 267.074219 57.226562 268.875 56.773438 270.675781 56.476562 C 272.476562 56.175781 274.425781 56.175781 276.226562 56.324219 C 278.023438 56.476562 279.898438 56.925781 281.625 57.523438 C 283.351562 58.125 285.074219 59.023438 286.574219 60 C 288.074219 60.976562 289.574219 62.175781 290.773438 63.523438 C 292.050781 64.875 293.101562 66.449219 294 68.023438 C 294.898438 69.601562 295.273438 70.648438 296.101562 73.125 C 297.976562 78.898438 302.925781 97.199219 303.300781 103.199219 C 303.449219 105.75 303.148438 106.875 302.699219 108.675781 C 302.25 110.398438 301.574219 112.199219 300.75 113.773438 C 299.925781 115.351562 298.800781 116.925781 297.601562 118.273438 C 296.398438 119.625 294.976562 120.898438 293.476562 121.949219 C 291.976562 123 290.324219 123.898438 288.675781 124.5 C 286.949219 125.175781 285.148438 125.550781 283.351562 125.773438 C 281.550781 126 279.601562 126 277.800781 125.773438 C 276 125.550781 274.199219 125.175781 272.476562 124.5 C 270.824219 123.898438 269.175781 123 267.675781 121.949219 C 266.175781 120.898438 264.75 119.625 263.550781 118.273438 C 262.351562 116.925781 261.226562 115.351562 260.398438 113.773438 C 259.574219 112.199219 258.898438 110.398438 258.449219 108.675781 C 258 106.875 257.773438 105.601562 257.851562 103.199219 C 258 98.476562 259.726562 82.351562 261.375 82.273438 C 263.398438 82.199219 271.351562 111.976562 269.625 113.175781 C 268.949219 113.625 266.550781 111.226562 265.199219 109.949219 C 263.925781 108.75 262.726562 107.25 261.75 105.75 C 260.773438 104.25 259.949219 102.601562 259.351562 100.875 C 258.75 99.148438 258.300781 97.273438 258.148438 95.476562 C 258 93.675781 258.074219 91.875 258.375 90.074219 C 258.675781 88.273438 259.125 86.398438 259.800781 84.75 C 260.476562 83.101562 261.449219 81.449219 262.5 80.023438 C 263.550781 78.601562 264.898438 77.175781 266.25 76.050781 C 267.675781 74.851562 269.175781 73.875 270.824219 73.050781 C 272.476562 72.300781 274.199219 71.699219 276 71.324219 C 277.800781 70.949219 279.675781 70.726562 281.476562 70.800781 C 283.273438 70.875 285.148438 71.101562 286.875 71.625 C 288.601562 72.074219 290.175781 72.601562 291.898438 73.726562 C 294.375 75.375 300.148438 81.074219 299.851562 81.449219 C 299.476562 81.976562 282.148438 74.625 280.050781 68.773438 C 277.949219 63 286.125 55.574219 287.101562 46.800781 C 288.523438 34.425781 281.023438 13.050781 283.351562 1.199219 C 285 -7.125 287.925781 -14.398438 293.625 -18.898438 C 299.925781 -23.925781 312 -25.273438 321 -25.648438 C 329.625 -26.023438 340.050781 -25.726562 346.425781 -21.75 C 352.199219 -18.148438 355.574219 -10.949219 358.425781 -4.351562 C 361.5 2.699219 362.925781 9.976562 363.75 19.5 C 364.875 33.226562 362.25 62.550781 361.125 70.574219 C 360.75 73.125 360.601562 73.949219 360 75.523438 C 359.398438 77.101562 358.648438 78.675781 357.675781 80.023438 C 356.773438 81.375 355.574219 82.648438 354.375 83.773438 C 353.101562 84.898438 351.75 85.875 350.25 86.699219 C 348.75 87.449219 347.175781 88.125 345.523438 88.5 C 343.875 88.949219 342.148438 89.175781 340.5 89.175781 C 338.851562 89.175781 337.199219 89.023438 335.550781 88.648438 C 333.898438 88.273438 332.25 87.601562 330.75 86.851562 C 329.25 86.101562 327.898438 85.125 326.625 84.074219 C 325.351562 82.949219 324.226562 81.675781 323.25 80.324219 C 322.273438 78.976562 321.523438 77.851562 320.851562 75.824219 C 319.648438 72.449219 320.101562 66.375 318.300781 61.425781 C 316.125 55.425781 311.175781 48.449219 307.5 42.75 C 304.199219 37.648438 299.175781 32.324219 297.375 28.875 C 296.398438 27 296.175781 25.875 295.875 24.300781 C 295.574219 22.726562 295.425781 21.074219 295.5 19.5 C 295.574219 17.925781 295.875 16.273438 296.324219 14.699219 C 296.773438 13.199219 297.449219 11.625 298.273438 10.273438 C 299.101562 8.925781 300.074219 7.574219 301.199219 6.449219 C 302.324219 5.324219 303.675781 4.273438 305.023438 3.449219 C 306.375 2.625 307.875 1.875 309.375 1.425781 C 310.875 0.898438 312.523438 0.601562 314.101562 0.523438 C 315.675781 0.449219 317.101562 0.300781 318.898438 0.75 C 321.449219 1.351562 325.574219 3.148438 327.75 4.574219 C 329.324219 5.625 331.199219 7.949219 331.199219 7.949219 " clip-rule="nonzero"/></clipPath><clipPath id="9005c34468"><path d="M 226.503906 142.0625 L 281 142.0625 L 281 193 L 226.503906 193 Z M 226.503906 142.0625 " clip-rule="nonzero"/></clipPath><clipPath id="c099635a1f"><path d="M 238.726562 155.023438 C 250.273438 155.476562 255.824219 152.023438 258.074219 153.601562 C 260.398438 155.25 259.875 165.976562 260.101562 165.976562 C 260.324219 165.976562 257.625 154.273438 259.199219 153.449219 C 260.851562 152.550781 267.074219 158.398438 270.148438 161.625 C 273.148438 164.851562 278.476562 171 277.5 172.726562 C 276.601562 174.375 269.398438 171.375 265.875 172.5 C 262.273438 173.625 255.824219 179.324219 255.976562 179.550781 C 256.050781 179.625 258.898438 178.574219 258.898438 178.125 C 258.898438 177.601562 256.273438 177.226562 255.148438 176.550781 C 254.023438 175.800781 252.898438 174.898438 252.074219 173.851562 C 251.25 172.800781 250.5 171.601562 250.050781 170.324219 C 249.601562 169.050781 249.300781 167.699219 249.226562 166.351562 C 249.148438 165 249.375 163.574219 249.75 162.300781 C 250.125 161.023438 250.800781 159.75 251.550781 158.699219 C 252.300781 157.574219 253.351562 156.601562 254.398438 155.773438 C 255.449219 155.023438 256.726562 154.351562 258 153.976562 C 259.273438 153.601562 260.699219 153.375 262.050781 153.375 C 263.398438 153.375 264.75 153.601562 266.023438 154.050781 C 267.300781 154.5 268.5 155.25 269.550781 156.074219 C 270.601562 156.898438 271.574219 157.949219 272.324219 159.074219 C 273.074219 160.199219 273.601562 161.476562 273.976562 162.75 C 274.351562 164.023438 274.425781 165.449219 274.351562 166.800781 C 274.273438 168.148438 273.898438 169.5 273.375 170.773438 C 272.851562 171.976562 272.101562 173.25 271.199219 174.226562 C 270.300781 175.199219 269.175781 176.101562 268.050781 176.773438 C 266.925781 177.449219 265.574219 177.898438 264.300781 178.199219 C 263.023438 178.5 261.601562 178.5 260.25 178.351562 C 258.898438 178.199219 257.550781 177.824219 256.351562 177.226562 C 255.148438 176.625 253.949219 175.800781 252.976562 174.824219 C 252 173.925781 251.175781 172.800781 250.574219 171.601562 C 249.976562 170.398438 249.523438 169.050781 249.375 167.699219 C 249.226562 166.351562 249.226562 164.925781 249.449219 163.648438 C 249.675781 162.300781 250.125 161.023438 250.800781 159.824219 C 251.476562 158.699219 252.375 157.574219 253.351562 156.675781 C 254.324219 155.773438 255.523438 154.949219 256.726562 154.425781 C 257.925781 153.898438 259.351562 153.523438 260.699219 153.375 C 262.050781 153.226562 263.25 152.851562 264.75 153.675781 C 268.273438 155.625 275.324219 165.75 277.800781 171.675781 C 279.75 176.324219 281.550781 181.875 280.050781 185.476562 C 278.699219 188.851562 274.125 192.976562 269.925781 192.898438 C 262.726562 192.824219 246.148438 177.449219 241.125 170.699219 C 238.351562 166.949219 237 163.574219 237.074219 159.976562 C 237.148438 156.300781 239.101562 151.5 241.800781 149.023438 C 244.574219 146.550781 249.601562 146.25 253.574219 145.199219 C 257.398438 144.226562 261.523438 142.125 265.199219 142.875 C 269.023438 143.625 273.898438 146.851562 275.851562 150.074219 C 277.726562 153.148438 277.949219 157.800781 277.199219 161.476562 C 276.449219 165.300781 273.976562 169.800781 270.976562 172.351562 C 268.050781 174.824219 263.699219 175.726562 259.648438 176.625 C 255.148438 177.601562 249.226562 177.824219 245.101562 177.824219 C 242.023438 177.824219 238.949219 177.449219 237 177.148438 C 235.875 177 235.351562 177 234.375 176.625 C 233.023438 176.101562 231.074219 175.050781 229.875 173.851562 C 228.675781 172.648438 227.699219 170.625 227.175781 169.273438 C 226.800781 168.300781 226.726562 167.625 226.726562 166.574219 C 226.726562 165.148438 227.023438 162.976562 227.773438 161.398438 C 228.523438 159.824219 230.023438 158.25 231.148438 157.273438 C 231.898438 156.601562 232.5 156.300781 233.476562 155.925781 C 234.824219 155.398438 238.726562 155.023438 238.726562 155.023438 " clip-rule="nonzero"/></clipPath></defs><rect x="-37.5" width="450" fill="#ffffff" y="-37.499999" height="449.999989" fill-opacity="1"/><rect x="-37.5" width="450" fill="#000000" y="-37.499999" height="449.999989" fill-opacity="1"/><g clip-path="url(#f4b6030ac7)"><path fill="#ffffff" d="M 225.472656 48.3125 C 244.671875 60.53125 258.054688 80.898438 260.382812 104.171875 C 267.949219 107.660156 276.675781 109.988281 285.984375 109.988281 C 319.730469 109.988281 347.078125 82.640625 347.078125 48.894531 C 347.078125 15.148438 319.730469 -12.199219 285.984375 -12.199219 C 252.820312 -11.617188 225.472656 15.148438 225.472656 48.3125 Z M 185.324219 172.828125 C 219.074219 172.828125 246.417969 145.480469 246.417969 111.734375 C 246.417969 77.988281 219.074219 50.640625 185.324219 50.640625 C 151.578125 50.640625 124.230469 77.988281 124.230469 111.734375 C 124.230469 145.480469 151.578125 172.828125 185.324219 172.828125 Z M 210.925781 176.902344 L 159.144531 176.902344 C 116.085938 176.902344 81.175781 211.8125 81.175781 254.867188 L 81.175781 319.453125 L 85.25 320.617188 C 125.976562 333.417969 162.050781 337.488281 191.144531 337.488281 C 248.164062 337.488281 281.328125 321.199219 283.65625 320.035156 L 287.730469 317.707031 L 288.3125 317.707031 L 288.3125 254.867188 C 288.894531 211.8125 253.984375 176.902344 210.925781 176.902344 Z M 311.585938 114.0625 L 260.382812 114.0625 C 259.800781 134.425781 251.074219 153.046875 237.109375 166.425781 C 275.511719 178.0625 303.441406 212.976562 303.441406 254.867188 L 303.441406 274.070312 C 354.058594 272.324219 383.152344 257.777344 384.898438 257.195312 L 388.972656 254.867188 L 389.550781 254.867188 L 389.550781 192.027344 C 389.550781 148.972656 354.640625 114.0625 311.585938 114.0625 Z M 311.585938 114.0625 " fill-opacity="1" fill-rule="nonzero"/></g><g clip-path="url(#30a3067eae)"><g clip-path="url(#f60e9f1ff3)"><path fill="#000000" d="M 210.449219 -11.398438 L 342.601562 -11.398438 L 342.601562 132.824219 L 210.449219 132.824219 Z M 210.449219 -11.398438 " fill-opacity="1" fill-rule="nonzero"/></g></g><g clip-path="url(#cd22611922)"><g clip-path="url(#18889b795e)"><path fill="#000000" d="M 245.625 -28.648438 L 401.476562 -28.648438 L 401.476562 296.625 L 245.625 296.625 Z M 245.625 -28.648438 " fill-opacity="1" fill-rule="nonzero"/></g></g><g clip-path="url(#9005c34468)"><g clip-path="url(#c099635a1f)"><path fill="#000000" d="M 223.726562 139.875 L 283.050781 139.875 L 283.050781 195.898438 L 223.726562 195.898438 Z M 223.726562 139.875 " fill-opacity="1" fill-rule="nonzero"/></g></g></svg>