<svg xmlns="http://www.w3.org/2000/svg" xmlns:xlink="http://www.w3.org/1999/xlink" width="150" zoomAndPan="magnify" viewBox="0 0 112.5 112.499997" height="150" preserveAspectRatio="xMidYMid meet" version="1.0"><defs><clipPath id="b07f720dcb"><path d="M 0 0 L 112.003906 0 L 112.003906 112.003906 L 0 112.003906 Z M 0 0 " clip-rule="nonzero"/></clipPath><clipPath id="3416c069f1"><path d="M 18.199219 18.429688 L 93.34375 18.429688 L 93.34375 93.574219 L 18.199219 93.574219 Z M 18.199219 18.429688 " clip-rule="nonzero"/></clipPath><clipPath id="b924254d39"><path d="M 55.773438 18.429688 C 35.023438 18.429688 18.199219 35.25 18.199219 56 C 18.199219 76.75 35.023438 93.574219 55.773438 93.574219 C 76.523438 93.574219 93.34375 76.75 93.34375 56 C 93.34375 35.25 76.523438 18.429688 55.773438 18.429688 Z M 55.773438 18.429688 " clip-rule="nonzero"/></clipPath><clipPath id="d456c8a892"><path d="M 29.84375 30.070312 L 81.703125 30.070312 L 81.703125 81.933594 L 29.84375 81.933594 Z M 29.84375 30.070312 " clip-rule="nonzero"/></clipPath><clipPath id="7722993299"><path d="M 55.773438 30.070312 C 41.453125 30.070312 29.84375 41.679688 29.84375 56 C 29.84375 70.324219 41.453125 81.933594 55.773438 81.933594 C 70.09375 81.933594 81.703125 70.324219 81.703125 56 C 81.703125 41.679688 70.09375 30.070312 55.773438 30.070312 Z M 55.773438 30.070312 " clip-rule="nonzero"/></clipPath></defs><g clip-path="url(#b07f720dcb)"><path fill="#ffffff" d="M 0 0 L 112.003906 0 L 112.003906 112.003906 L 0 112.003906 Z M 0 0 " fill-opacity="1" fill-rule="nonzero"/><path fill="#000000" d="M 0 0 L 112.003906 0 L 112.003906 112.003906 L 0 112.003906 Z M 0 0 " fill-opacity="1" fill-rule="nonzero"/></g><g clip-path="url(#3416c069f1)"><g clip-path="url(#b924254d39)"><path fill="#ffffff" d="M 18.199219 18.429688 L 93.34375 18.429688 L 93.34375 93.574219 L 18.199219 93.574219 Z M 18.199219 18.429688 " fill-opacity="1" fill-rule="nonzero"/></g></g><g clip-path="url(#d456c8a892)"><g clip-path="url(#7722993299)"><path fill="#000000" d="M 29.84375 30.070312 L 81.703125 30.070312 L 81.703125 81.933594 L 29.84375 81.933594 Z M 29.84375 30.070312 " fill-opacity="1" fill-rule="nonzero"/></g></g></svg>