<svg xmlns="http://www.w3.org/2000/svg" xmlns:xlink="http://www.w3.org/1999/xlink" width="150" zoomAndPan="magnify" viewBox="0 0 112.5 112.499997" height="150" preserveAspectRatio="xMidYMid meet" version="1.0"><defs><clipPath id="a728f605e6"><path d="M 0 0 L 112.003906 0 L 112.003906 112.003906 L 0 112.003906 Z M 0 0 " clip-rule="nonzero"/></clipPath><clipPath id="501073c55c"><path d="M 23 21 L 89 21 L 89 87 L 23 87 Z M 23 21 " clip-rule="nonzero"/></clipPath><clipPath id="07dd214515"><path d="M 21.160156 29.304688 L 31.359375 19.101562 L 90.84375 78.585938 L 80.644531 88.789062 Z M 21.160156 29.304688 " clip-rule="nonzero"/></clipPath><clipPath id="d749a939e0"><path d="M 24.855469 25.605469 L 27.664062 22.796875 C 29.707031 20.757812 33.015625 20.757812 35.054688 22.796875 L 87.148438 74.890625 C 89.191406 76.933594 89.191406 80.242188 87.148438 82.28125 L 84.339844 85.089844 C 82.296875 87.132812 78.988281 87.132812 76.949219 85.089844 L 24.855469 33 C 22.8125 30.957031 22.8125 27.648438 24.855469 25.605469 Z M 24.855469 25.605469 " clip-rule="nonzero"/></clipPath><clipPath id="46f2fcd0b4"><path d="M 23 21 L 89 21 L 89 87 L 23 87 Z M 23 21 " clip-rule="nonzero"/></clipPath><clipPath id="d38a99020a"><path d="M 80.640625 19.105469 L 90.839844 29.308594 L 31.355469 88.792969 L 21.15625 78.589844 Z M 80.640625 19.105469 " clip-rule="nonzero"/></clipPath><clipPath id="fe44fa1647"><path d="M 84.335938 22.800781 L 87.144531 25.613281 C 89.1875 27.652344 89.1875 30.960938 87.144531 33.003906 L 35.050781 85.097656 C 33.011719 87.136719 29.703125 87.136719 27.660156 85.097656 L 24.851562 82.285156 C 22.808594 80.246094 22.808594 76.9375 24.851562 74.894531 L 76.945312 22.800781 C 78.984375 20.761719 82.292969 20.761719 84.335938 22.800781 Z M 84.335938 22.800781 " clip-rule="nonzero"/></clipPath></defs><g clip-path="url(#a728f605e6)"><path fill="#ffffff" d="M 0 0 L 112.003906 0 L 112.003906 112.003906 L 0 112.003906 Z M 0 0 " fill-opacity="1" fill-rule="nonzero"/><path fill="#000000" d="M 0 0 L 112.003906 0 L 112.003906 112.003906 L 0 112.003906 Z M 0 0 " fill-opacity="1" fill-rule="nonzero"/></g><g clip-path="url(#501073c55c)"><g clip-path="url(#07dd214515)"><g clip-path="url(#d749a939e0)"><path fill="#ffffff" d="M 21.160156 29.304688 L 31.359375 19.101562 L 90.84375 78.585938 L 80.644531 88.789062 Z M 21.160156 29.304688 " fill-opacity="1" fill-rule="nonzero"/></g></g></g><g clip-path="url(#46f2fcd0b4)"><g clip-path="url(#d38a99020a)"><g clip-path="url(#fe44fa1647)"><path fill="#ffffff" d="M 80.640625 19.105469 L 90.839844 29.308594 L 31.355469 88.792969 L 21.15625 78.589844 Z M 80.640625 19.105469 " fill-opacity="1" fill-rule="nonzero"/></g></g></g></svg>